#N canvas 366 26 500 429 10;
#X obj 86 263 +~;
#X obj 116 227 *~ 140;
#X floatatom 161 132 5 0 0 0 - - -, f 5;
#X obj 116 165 osc~ 1;
#X floatatom 114 70 5 0 0 0 - - -, f 5;
#X floatatom 54 140 5 0 0 0 - - -, f 5;
#X obj 85 293 osc~;
#X obj 84 322 *~ 0.8;
#X text 42 117 Carrier;
#X text 116 45 Modulator;
#X obj 43 23 inlet;
#X obj 73 46 * 2;
#X obj 84 425 outlet~;
#X floatatom 102 13 5 0 0 0 - - -, f 5;
#X obj 101 370 *~;
#X obj 166 334 vline~;
#X obj 238 161 t b;
#X obj 225 26 inlet;
#X obj 279 205 t b;
#X obj 158 14 r modulator;
#X obj 162 105 r moddepth;
#X obj 294 148 *~;
#X obj 391 102 r randdepth;
#X obj 115 124 +~;
#X obj 288 39 tgl 15 0 empty empty empty 17 7 0 10 -262144 -1 -1 1
1;
#X obj 295 82 random 1000;
#X obj 293 58 metro 10;
#X obj 292 106 sig~;
#X obj 289 124 lop~ 5;
#X obj 283 8 loadbang;
#X msg 358 26 1;
#X obj 134 28 abs;
#X msg 266 242 1 50;
#X obj 165 158 clip 0 20000;
#X msg 210 240 0 100;
#X obj 165 203 +;
#X obj 201 175 receive mod_from_velocity;
#X floatatom 338 213 5 0 0 0 - - -, f 5;
#X floatatom 170 233 5 0 0 0 - - -, f 5;
#X connect 0 0 6 0;
#X connect 1 0 0 1;
#X connect 2 0 33 0;
#X connect 3 0 1 0;
#X connect 4 0 23 0;
#X connect 5 0 0 0;
#X connect 6 0 7 0;
#X connect 7 0 14 0;
#X connect 10 0 5 0;
#X connect 10 0 11 0;
#X connect 10 0 18 0;
#X connect 11 0 4 0;
#X connect 13 0 31 0;
#X connect 14 0 12 0;
#X connect 15 0 14 1;
#X connect 16 0 34 0;
#X connect 17 0 16 0;
#X connect 18 0 32 0;
#X connect 19 0 13 0;
#X connect 20 0 2 0;
#X connect 21 0 23 1;
#X connect 22 0 21 1;
#X connect 23 0 3 0;
#X connect 24 0 26 0;
#X connect 25 0 27 0;
#X connect 26 0 25 0;
#X connect 27 0 28 0;
#X connect 28 0 21 0;
#X connect 29 0 30 0;
#X connect 30 0 24 0;
#X connect 31 0 11 1;
#X connect 32 0 15 0;
#X connect 33 0 35 1;
#X connect 34 0 15 0;
#X connect 35 0 1 1;
#X connect 35 0 38 0;
#X connect 36 0 35 0;
#X connect 36 0 37 0;
