#N canvas 952 49 1112 945 10;
#X obj -155 -233 receive fromGUI;
#X obj -155 -205 list trim;
#X obj -154 -180 route /mt;
#X obj -154 -152 route touch;
#X floatatom -90 -26 5 0 0 0 - - -, f 5;
#X floatatom -55 -24 5 0 0 0 - - -, f 5;
#X obj -153 -69 unpack 0 0 0;
#X obj -154 -127 route 0 1 2 3 4 5 6 7 8 9 10;
#X obj 305 754 dac~;
#X obj 240 590 send~ out2L;
#X obj 393 582 send~ out2R;
#X obj 244 622 receive~ out2L;
#X obj 357 612 receive~ out2R;
#X obj 239 465 rev3~ 100 90 3000 20;
#X obj 392 464 rev3~ 100 90 3000 20;
#X floatatom 462 432 5 0 0 0 - - -, f 5;
#N canvas 25 29 669 335 wetdry 0;
#X obj 78 264 outlet~;
#X obj 131 228 *~;
#X obj 53 221 *~;
#X obj 71 165 -;
#X obj 62 139 1;
#X obj 73 113 t b f f;
#X obj 35 34 inlet~;
#X obj 146 33 inlet~;
#X text 32 17 dry sig;
#X obj 368 50 inlet;
#X text 365 33 control;
#X obj 369 88 clip 0 100;
#X obj 369 112 / 100;
#X obj 438 43 loadbang;
#X obj 440 64 \$1;
#X text 141 14 wet sig L;
#X obj 226 35 inlet~;
#X text 221 16 wet sig R;
#X obj 85 35 inlet~;
#X text 83 18 dry sig R;
#X obj 269 236 *~;
#X obj 196 234 *~;
#X obj 214 178 -;
#X obj 205 152 1;
#X obj 216 126 t b f f;
#X obj 223 286 outlet~;
#X obj 40 40 tgl 15 0 empty empty empty 17 7 0 10 -262144 -1 -1 0 1
;
#X connect 1 0 0 0;
#X connect 2 0 0 0;
#X connect 3 0 2 1;
#X connect 4 0 3 0;
#X connect 5 0 4 0;
#X connect 5 1 3 1;
#X connect 5 2 1 1;
#X connect 6 0 2 0;
#X connect 7 0 1 0;
#X connect 9 0 11 0;
#X connect 11 0 12 0;
#X connect 12 0 5 0;
#X connect 12 0 24 0;
#X connect 13 0 14 0;
#X connect 14 0 11 0;
#X connect 16 0 20 0;
#X connect 18 0 21 0;
#X connect 20 0 25 0;
#X connect 21 0 25 0;
#X connect 22 0 21 1;
#X connect 23 0 22 0;
#X connect 24 0 23 0;
#X connect 24 1 22 1;
#X connect 24 2 20 1;
#X restore 311 538 pd wetdry;
#X floatatom 410 516 5 0 0 0 - - -, f 5;
#X obj -111 -1 XY_coordinate_calculations;
#X floatatom -138 35 5 0 0 0 - - -, f 5;
#X floatatom -78 59 5 0 0 0 - - -, f 5;
#X floatatom -15 80 5 0 0 0 - - -, f 5;
#X obj 59 63 tgl 15 0 empty empty empty 17 7 0 10 -262144 -1 -1 0 1
;
#X text -70 42 DIRECTION;
#X text -112 18 VELOCITY;
#X text -9 62 QUADRANT;
#X text 60 44 ACTIVITY;
#X obj 263 437 *~;
#X obj 345 428 *~;
#X obj 159 381 receive~ veltovol;
#X obj 121 -116 s X1;
#X obj 163 -104 s Y1;
#X obj 58 97 s firstFingerActivity;
#X text 372 -199 positie gebaseerd op X/Y maar volgens function achtige
omvorming...;
#X text 375 -176 cumulative energy ook \, kleine bewegingen voegen
toch toe aan vol;
#N canvas 1134 29 461 395 veltovol 0;
#X obj 45 93 sig~;
#X obj 45 118 *~ 2;
#X obj 56 352 send~ veltovol;
#X obj 32 43 inlet;
#X obj 131 97 sig~;
#X obj 52 184 +~;
#X obj 139 125 cumulative_energy;
#X obj 135 23 inlet;
#X obj 131 53 abs;
#X obj 49 231 lop~ 1;
#X obj 111 172 *~;
#X obj 150 147 *~ 2;
#X obj 63 315 +~, f 4;
#X obj 183 282 vline~;
#X msg 274 257 \$1 200;
#X obj 286 157 r fingerOn;
#X obj 134 314 *~ 0.05;
#X connect 0 0 1 0;
#X connect 1 0 5 0;
#X connect 1 0 10 0;
#X connect 3 0 0 0;
#X connect 4 0 6 0;
#X connect 5 0 9 0;
#X connect 6 0 11 0;
#X connect 7 0 8 0;
#X connect 8 0 4 0;
#X connect 9 0 12 0;
#X connect 10 0 5 1;
#X connect 11 0 10 1;
#X connect 12 0 2 0;
#X connect 13 0 16 0;
#X connect 14 0 13 0;
#X connect 15 0 14 0;
#X connect 16 0 12 1;
#X restore -144 90 pd veltovol;
#X obj 456 504 loadbang;
#X msg 457 527 40;
#N canvas 753 485 783 483 karplusvoice 0;
#X obj 150 132 bng 15 250 50 0 empty empty empty 17 7 0 10 -262144
-1 -1;
#X obj 229 214 vd~ lijntje;
#X obj 228 183 sig~;
#X floatatom 226 159 5 0 0 0 - - -, f 5;
#X obj 80 245 delwrite~ lijntje 10;
#X obj 94 191 vline~;
#X msg 93 162 1 1 \, 0 0 1;
#X obj 32 189 noise~;
#X obj 210 118 t b f;
#X obj 278 383 outlet~;
#X obj 211 33 t b f;
#X obj 211 11 inlet;
#X msg 196 56 1000;
#X obj 211 85 /;
#X obj 72 219 *~;
#X floatatom 316 271 5 0 0 0 - - -, f 5;
#X obj 242 254 lop~ 6500;
#X msg 454 215 1;
#X obj 454 257 sig~;
#X obj 582 225 int;
#X obj 580 157 delay 20;
#X obj 582 179 t b b;
#X obj 430 286 *~;
#X msg 563 272 1 \$1;
#X obj 520 296 vline~;
#X obj 505 124 t b b;
#X msg 520 236 0;
#X obj 264 343 *~;
#X floatatom 653 204 5 0 0 0 - - -, f 5;
#X obj 649 108 loadbang;
#X msg 651 144 400;
#X obj 258 301 *~ 0.9;
#X connect 0 0 6 0;
#X connect 0 0 25 0;
#X connect 1 0 16 0;
#X connect 2 0 1 0;
#X connect 3 0 2 0;
#X connect 5 0 14 1;
#X connect 6 0 5 0;
#X connect 7 0 14 0;
#X connect 8 0 0 0;
#X connect 8 1 3 0;
#X connect 10 0 12 0;
#X connect 10 1 13 1;
#X connect 11 0 10 0;
#X connect 12 0 13 0;
#X connect 13 0 8 0;
#X connect 14 0 4 0;
#X connect 15 0 31 1;
#X connect 16 0 31 0;
#X connect 17 0 18 0;
#X connect 18 0 22 0;
#X connect 19 0 23 0;
#X connect 20 0 21 0;
#X connect 21 0 17 0;
#X connect 21 1 19 0;
#X connect 22 0 27 1;
#X connect 23 0 24 0;
#X connect 24 0 22 1;
#X connect 25 0 20 0;
#X connect 25 1 26 0;
#X connect 26 0 24 0;
#X connect 27 0 9 0;
#X connect 28 0 19 1;
#X connect 29 0 30 0;
#X connect 30 0 28 0;
#X connect 31 0 4 0;
#X connect 31 0 27 0;
#X restore 136 232 pd karplusvoice;
#X text 377 -150 combinations between synthesis techniques;
#X obj -153 -16 tgl 15 0 empty empty empty 17 7 0 10 -262144 -1 -1
0 1;
#X obj -153 118 s fingerOn;
#X obj 326 312 fmvoice;
#X obj 345 260 route 1 2 3 4 5 6 7 8;
#X obj 391 680 *~ 0.5;
#X obj 260 682 *~ 0.5;
#X text 380 -136 take position from finger that moves;
#X obj 572 99 s randdepth;
#X floatatom 579 72 5 0 0 0 - - -, f 5;
#X obj 504 308 fmvoice;
#X obj 378 310 fmvoice;
#X obj 429 309 fmvoice;
#X obj 709 304 fmvoice;
#X obj 560 308 fmvoice;
#X obj 612 306 fmvoice;
#X obj 663 305 fmvoice;
#X obj 569 13 loadbang;
#X msg 577 46 0.01;
#X obj 262 654 hip~ 200;
#X obj 364 642 hip~ 200;
#X obj 266 709 expr~ tanh($v1);
#X obj 384 712 expr~ tanh($v1);
#N canvas 0 22 450 300 mod_by_manyfingers 0;
#X obj 17 83 unpack 0;
#X obj 72 83 unpack 0;
#X obj 131 82 unpack 0;
#X obj 189 82 unpack 0;
#X obj 245 81 unpack 0;
#X obj 180 157 expr $i1 + $i2 + $i3 + $i4 + $i5;
#X floatatom 182 181 5 0 0 0 - - -, f 5;
#X obj 120 112 t b f;
#X obj 166 111 t b f;
#X obj 215 109 t b f;
#X obj 270 112 t b f;
#X obj 183 244 s modulator;
#X obj 181 219 * 2;
#X obj 181 199 - 1;
#X obj 158 426 s moddepth;
#X floatatom 161 405 5 0 0 0 - - -, f 5;
#X obj 160 382 * 100;
#X obj 161 356 line;
#X msg 160 335 \$1 700;
#X obj 13 31 inlet;
#X obj 71 28 inlet;
#X obj 136 28 inlet;
#X obj 193 29 inlet;
#X obj 252 37 inlet;
#X connect 0 0 5 0;
#X connect 1 0 7 0;
#X connect 2 0 8 0;
#X connect 3 0 9 0;
#X connect 4 0 10 0;
#X connect 5 0 6 0;
#X connect 6 0 13 0;
#X connect 7 0 5 0;
#X connect 7 1 5 1;
#X connect 8 0 5 0;
#X connect 8 1 5 2;
#X connect 9 0 5 0;
#X connect 9 1 5 3;
#X connect 10 0 5 0;
#X connect 10 1 5 4;
#X connect 12 0 11 0;
#X connect 12 0 18 0;
#X connect 13 0 12 0;
#X connect 15 0 14 0;
#X connect 16 0 15 0;
#X connect 17 0 16 0;
#X connect 18 0 17 0;
#X connect 19 0 0 0;
#X connect 20 0 1 0;
#X connect 21 0 2 0;
#X connect 22 0 3 0;
#X connect 23 0 4 0;
#X restore -59 -168 pd mod_by_manyfingers;
#X obj 24 521 delwrite~ delaytje 1000;
#X obj 19 424 vd~ delaytje;
#X obj 2 383 sig~;
#X floatatom 1 356 5 0 0 0 - - -, f 5;
#X obj -16 254 r firstFingerActivity;
#X obj -14 273 sel 1;
#X obj -13 297 random 400;
#X obj -5 329 + 200;
#X obj -73 121 s velocity;
#X obj -115 351 r velocity;
#X obj -113 379 sig~;
#X obj -104 468 lop~ 5;
#X obj 35 486 *~;
#X obj 492 178 s decayVol;
#X floatatom 507 149 5 0 0 0 - - -, f 5;
#X obj -97 432 *~ 0.8;
#X obj 479 87 loadbang;
#X obj 50 404 lop~ 2;
#X msg 487 113 0.9;
#X text 387 -108 x en y positie middelen van meerdere punten;
#X text 389 -93 maak lijst van alle posities en bereken average;
#N canvas 1010 40 766 571 meanXY 0;
#X obj 30 23 inlet;
#X obj 108 87 route touchesByX;
#X obj 275 135 list length;
#X obj 275 158 / 3;
#X floatatom 277 181 5 0 0 0 - - -, f 5;
#X obj 125 213 list split 3;
#X obj 101 142 until;
#X obj 98 175 list append;
#X obj 212 214 bang;
#X obj 111 115 t b l l;
#X obj 154 249 unpack 0 0 0;
#X obj 201 280 list-group 2;
#X obj 291 209 change;
#X obj 252 232 == 1;
#X floatatom 207 343 5 0 0 0 - - -, f 5;
#X obj 261 331 spigot;
#X obj 60 247 unpack 0 0 0;
#X text 230 365 mean X;
#X obj 450 332 spigot;
#X floatatom 447 371 5 0 0 0 - - -, f 5;
#X text 350 373 mean Y;
#X obj 345 283 list-group 2;
#X obj 199 307 list-mean;
#X obj 343 310 list-mean;
#X obj 201 429 outlet;
#X obj 439 418 outlet;
#X connect 0 0 1 0;
#X connect 1 0 9 0;
#X connect 2 0 3 0;
#X connect 3 0 4 0;
#X connect 4 0 12 0;
#X connect 5 0 16 0;
#X connect 5 1 7 1;
#X connect 5 1 10 0;
#X connect 5 2 8 0;
#X connect 6 0 7 0;
#X connect 7 0 5 0;
#X connect 8 0 6 1;
#X connect 9 0 6 0;
#X connect 9 1 7 1;
#X connect 9 2 2 0;
#X connect 10 1 11 0;
#X connect 10 2 21 0;
#X connect 11 0 22 0;
#X connect 12 0 11 1;
#X connect 12 0 13 0;
#X connect 12 0 21 1;
#X connect 13 0 15 1;
#X connect 13 0 18 1;
#X connect 14 0 24 0;
#X connect 15 0 14 0;
#X connect 16 1 15 0;
#X connect 16 2 18 0;
#X connect 18 0 19 0;
#X connect 19 0 25 0;
#X connect 21 0 23 0;
#X connect 22 0 14 0;
#X connect 23 0 19 0;
#X restore 125 -155 pd meanXY;
#N canvas 0 22 450 300 drive8voices 0;
#X obj 250 130 list split;
#X floatatom 341 102 5 0 0 0 - - -, f 5;
#X floatatom 271 175 5 0 0 0 - - -, f 5;
#X floatatom 335 11 5 0 0 0 - - -, f 5;
#X obj 335 -13 receive Y1;
#X obj 334 54 t b f;
#X floatatom 391 78 5 0 0 0 - - -, f 5;
#X obj 391 55 receive X1;
#X obj 389 173 * 12;
#X floatatom 391 150 5 0 0 0 - - -, f 5;
#X obj 390 125 i;
#X obj 279 194 +;
#X obj 277 268 mtof;
#X obj 279 214 change;
#X obj 393 96 * 3;
#X obj 334 29 * 3;
#X msg 242 89 10 13 15;
#X msg 284 308 1;
#X obj 285 330 +;
#X floatatom 285 354 5 0 0 0 - - -, f 5;
#X obj 286 395 + 1;
#X floatatom 287 418 5 0 0 0 - - -, f 5;
#X obj 317 453 pack 0 0;
#X obj 277 289 t b f;
#X obj 278 244 + 36;
#X obj 285 374 % 8;
#X obj 321 501 outlet;
#X connect 0 1 2 0;
#X connect 1 0 0 1;
#X connect 2 0 11 0;
#X connect 3 0 15 0;
#X connect 4 0 3 0;
#X connect 5 0 16 0;
#X connect 5 1 1 0;
#X connect 6 0 14 0;
#X connect 7 0 6 0;
#X connect 8 0 11 1;
#X connect 9 0 8 0;
#X connect 10 0 9 0;
#X connect 11 0 13 0;
#X connect 12 0 23 0;
#X connect 13 0 24 0;
#X connect 14 0 10 0;
#X connect 15 0 5 0;
#X connect 16 0 0 0;
#X connect 17 0 18 0;
#X connect 18 0 19 0;
#X connect 19 0 18 1;
#X connect 19 0 25 0;
#X connect 20 0 21 0;
#X connect 21 0 22 0;
#X connect 22 0 26 0;
#X connect 23 0 17 0;
#X connect 23 1 22 1;
#X connect 24 0 12 0;
#X connect 25 0 20 0;
#X restore 343 228 pd drive8voices;
#X obj -59 -67 r X1;
#X obj -11 -66 r Y1;
#X connect 0 0 1 0;
#X connect 1 0 2 0;
#X connect 2 0 3 0;
#X connect 2 0 84 0;
#X connect 3 0 7 0;
#X connect 4 0 18 0;
#X connect 5 0 18 1;
#X connect 6 0 40 0;
#X connect 7 0 6 0;
#X connect 7 1 62 0;
#X connect 7 1 6 0;
#X connect 7 2 62 1;
#X connect 7 2 6 0;
#X connect 7 3 62 2;
#X connect 7 3 6 0;
#X connect 7 4 62 3;
#X connect 7 4 6 0;
#X connect 7 5 62 4;
#X connect 7 5 6 0;
#X connect 11 0 58 0;
#X connect 12 0 59 0;
#X connect 13 0 16 2;
#X connect 13 1 16 3;
#X connect 14 0 16 2;
#X connect 14 1 16 3;
#X connect 15 0 14 3;
#X connect 15 0 13 3;
#X connect 16 0 9 0;
#X connect 16 1 10 0;
#X connect 17 0 16 4;
#X connect 18 0 19 0;
#X connect 18 1 20 0;
#X connect 18 2 21 0;
#X connect 18 3 22 0;
#X connect 19 0 35 0;
#X connect 19 0 71 0;
#X connect 20 0 35 1;
#X connect 22 0 32 0;
#X connect 27 0 16 0;
#X connect 27 0 13 0;
#X connect 27 0 63 0;
#X connect 28 0 14 0;
#X connect 28 0 16 1;
#X connect 29 0 27 0;
#X connect 29 0 28 0;
#X connect 36 0 37 0;
#X connect 37 0 17 0;
#X connect 40 0 41 0;
#X connect 42 0 28 1;
#X connect 42 0 27 1;
#X connect 43 0 42 0;
#X connect 43 0 52 1;
#X connect 43 1 42 1;
#X connect 43 1 50 0;
#X connect 43 2 50 1;
#X connect 43 2 51 0;
#X connect 43 3 49 0;
#X connect 43 3 51 1;
#X connect 43 4 49 1;
#X connect 43 4 53 0;
#X connect 43 5 53 1;
#X connect 43 5 54 0;
#X connect 43 6 54 1;
#X connect 43 6 55 0;
#X connect 43 7 52 0;
#X connect 43 7 55 1;
#X connect 44 0 61 0;
#X connect 45 0 60 0;
#X connect 48 0 47 0;
#X connect 49 0 27 1;
#X connect 49 0 28 1;
#X connect 50 0 27 1;
#X connect 50 0 28 1;
#X connect 51 0 27 0;
#X connect 51 0 28 1;
#X connect 52 0 27 1;
#X connect 52 0 28 1;
#X connect 53 0 27 1;
#X connect 53 0 28 1;
#X connect 54 0 27 1;
#X connect 54 0 28 1;
#X connect 55 0 27 1;
#X connect 55 0 28 1;
#X connect 56 0 57 0;
#X connect 57 0 48 0;
#X connect 58 0 45 0;
#X connect 59 0 44 0;
#X connect 60 0 8 0;
#X connect 61 0 8 1;
#X connect 64 0 13 0;
#X connect 64 0 14 0;
#X connect 64 0 75 0;
#X connect 65 0 80 0;
#X connect 66 0 65 0;
#X connect 67 0 68 0;
#X connect 68 0 69 0;
#X connect 69 0 70 0;
#X connect 70 0 66 0;
#X connect 72 0 73 0;
#X connect 73 0 78 0;
#X connect 74 0 75 1;
#X connect 75 0 63 0;
#X connect 77 0 76 0;
#X connect 78 0 74 0;
#X connect 79 0 81 0;
#X connect 80 0 64 0;
#X connect 81 0 77 0;
#X connect 84 0 30 0;
#X connect 84 1 31 0;
#X connect 85 0 43 0;
#X connect 86 0 4 0;
#X connect 87 0 5 0;
