#N canvas 452 23 1089 613 10;
#X obj -155 -85 receive fromGUI;
#X obj -155 -57 list trim;
#X obj -154 -32 route /mt;
#X obj -154 -4 route touch;
#X obj -153 79 unpack 0 0 0;
#X obj -154 21 route 0 1 2 3 4 5 6 7 8 9 10;
#X obj 27 456 dac~;
#X obj 493 280 send~ out2L;
#X obj 565 280 send~ out2R;
#X obj -71 360 receive~ out2L;
#X obj 47 357 receive~ out2R;
#X obj 493 193 rev3~ 100 90 3000 20;
#X obj 620 193 rev3~ 100 90 3000 20;
#X floatatom 690 169 5 0 0 0 - - -, f 5;
#N canvas 25 29 669 335 wetdry 0;
#X obj 78 264 outlet~;
#X obj 131 228 *~;
#X obj 53 221 *~;
#X obj 71 165 -;
#X obj 62 139 1;
#X obj 73 113 t b f f;
#X obj 35 34 inlet~;
#X obj 146 33 inlet~;
#X text 32 17 dry sig;
#X obj 368 50 inlet;
#X text 365 33 control;
#X obj 369 88 clip 0 100;
#X obj 369 112 / 100;
#X obj 438 43 loadbang;
#X obj 440 64 \$1;
#X text 141 14 wet sig L;
#X obj 226 35 inlet~;
#X text 221 16 wet sig R;
#X obj 85 35 inlet~;
#X text 83 18 dry sig R;
#X obj 269 236 *~;
#X obj 196 234 *~;
#X obj 214 178 -;
#X obj 205 152 1;
#X obj 216 126 t b f f;
#X obj 223 286 outlet~;
#X connect 1 0 0 0;
#X connect 2 0 0 0;
#X connect 3 0 2 1;
#X connect 4 0 3 0;
#X connect 5 0 4 0;
#X connect 5 1 3 1;
#X connect 5 2 1 1;
#X connect 6 0 2 0;
#X connect 7 0 1 0;
#X connect 9 0 11 0;
#X connect 11 0 12 0;
#X connect 12 0 5 0;
#X connect 12 0 24 0;
#X connect 13 0 14 0;
#X connect 14 0 11 0;
#X connect 16 0 20 0;
#X connect 18 0 21 0;
#X connect 20 0 25 0;
#X connect 21 0 25 0;
#X connect 22 0 21 1;
#X connect 23 0 22 0;
#X connect 24 0 23 0;
#X connect 24 1 22 1;
#X connect 24 2 20 1;
#X restore 493 254 pd wetdry;
#X obj -111 147 XY_coordinate_calculations;
#X floatatom -111 184 5 0 0 0 - - -, f 5;
#X floatatom -60 201 5 0 0 0 - - -, f 5;
#X floatatom -9 226 5 0 0 0 - - -, f 5;
#X obj 42 227 tgl 15 0 empty empty empty 17 7 0 10 -262144 -1 -1 0
1;
#X text -56 184 DIRECTION;
#X text -106 167 VELOCITY;
#X text -5 209 QUADRANT;
#X text 48 242 ACTIVITY;
#X obj 493 164 *~;
#X obj 600 158 *~;
#X obj 368 78 receive~ veltovol;
#X obj 58 11 s X1;
#X obj 107 10 s Y1;
#X obj 41 261 s firstFingerActivity;
#N canvas 1134 29 461 395 veltovol 0;
#X obj 45 93 sig~;
#X obj 45 118 *~ 2;
#X obj 56 352 send~ veltovol;
#X obj 32 43 inlet;
#X obj 131 97 sig~;
#X obj 52 184 +~;
#X obj 139 125 cumulative_energy;
#X obj 135 23 inlet;
#X obj 131 53 abs;
#X obj 49 231 lop~ 1;
#X obj 111 172 *~;
#X obj 150 147 *~ 2;
#X obj 63 315 +~, f 4;
#X obj 183 282 vline~;
#X msg 274 257 \$1 200;
#X obj 286 157 r fingerOn;
#X obj 134 314 *~ 0.05;
#X connect 0 0 1 0;
#X connect 1 0 5 0;
#X connect 1 0 10 0;
#X connect 3 0 0 0;
#X connect 4 0 6 0;
#X connect 5 0 9 0;
#X connect 6 0 11 0;
#X connect 7 0 8 0;
#X connect 8 0 4 0;
#X connect 9 0 12 0;
#X connect 10 0 5 1;
#X connect 11 0 10 1;
#X connect 12 0 2 0;
#X connect 13 0 16 0;
#X connect 14 0 13 0;
#X connect 15 0 14 0;
#X connect 16 0 12 1;
#X restore -111 234 pd veltovol;
#X obj 638 220 loadbang;
#X msg 638 242 40;
#X obj -153 132 tgl 15 0 empty empty empty 17 7 0 10 -262144 -1 -1
0 1;
#X obj -153 266 s fingerOn;
#X obj 603 29 route 1 2 3 4 5 6 7 8;
#X obj 383 -16 s randdepth;
#X obj -71 430 expr~ tanh($v1);
#X obj 47 429 expr~ tanh($v1);
#N canvas 0 22 788 387 mod_by_manyfingers 0;
#X obj 12 89 unpack 0;
#X obj 70 90 unpack 0;
#X obj 130 90 unpack 0;
#X obj 191 90 unpack 0;
#X obj 253 89 unpack 0;
#X obj 70 143 expr $i1 + $i2 + $i3 + $i4 + $i5;
#X obj 70 117 t b f;
#X obj 130 116 t b f;
#X obj 191 114 t b f;
#X obj 253 113 t b f;
#X obj 70 212 s modulator;
#X obj 70 187 * 2;
#X obj 70 167 - 1;
#X obj 148 280 s moddepth;
#X obj 148 257 * 100;
#X obj 148 234 line;
#X msg 148 212 \$1 700;
#X obj 12 58 inlet;
#X obj 70 58 inlet;
#X obj 130 58 inlet;
#X obj 191 59 inlet;
#X obj 253 58 inlet;
#X text 6 21 amount of mod on the FM synth by amount of fingers;
#X obj 436 96 sig~;
#X obj 436 72 abs;
#X obj 436 147 *~ 2;
#X obj 436 44 r velocity;
#X obj 372 187 snapshot~;
#X msg 372 122 1;
#X obj 372 146 metro 50;
#N canvas 0 23 450 300 customcumula 0;
#X obj 28 14 inlet~;
#X obj 36 181 -~;
#X obj 36 205 abs~;
#X obj 37 265 +~;
#X obj 122 284 outlet~;
#X obj 36 234 *~ 1;
#X obj 36 320 lop~ 200;
#X obj 44 46 delwrite~ cumula 10;
#X obj 44 67 delread~ cumula 10;
#X obj 101 234 delread~ cumula2 5;
#X obj 37 380 delwrite~ cumula2 5;
#X obj 36 292 *~ 0.97;
#X connect 0 0 1 0;
#X connect 0 0 7 0;
#X connect 1 0 2 0;
#X connect 2 0 5 0;
#X connect 3 0 11 0;
#X connect 5 0 3 0;
#X connect 6 0 10 0;
#X connect 8 0 1 1;
#X connect 9 0 3 1;
#X connect 9 0 4 0;
#X connect 11 0 6 0;
#X restore 436 122 pd customcumula;
#X obj 461 319 send mod_from_velocity;
#X obj 372 98 loadbang;
#X obj 372 212 * 600;
#X obj 461 294 *;
#X obj 534 153 r fingerOn;
#X obj 534 178 sig~;
#X obj 476 261 snapshot~;
#X msg 476 177 1;
#X obj 476 229 metro 50;
#X obj 476 153 loadbang;
#X obj 534 201 lop~ 0.8;
#X text 371 18 extra modulation on acceleration;
#X connect 0 0 5 0;
#X connect 1 0 6 0;
#X connect 2 0 7 0;
#X connect 3 0 8 0;
#X connect 4 0 9 0;
#X connect 5 0 12 0;
#X connect 6 0 5 0;
#X connect 6 1 5 1;
#X connect 7 0 5 0;
#X connect 7 1 5 2;
#X connect 8 0 5 0;
#X connect 8 1 5 3;
#X connect 9 0 5 0;
#X connect 9 1 5 4;
#X connect 11 0 10 0;
#X connect 11 0 16 0;
#X connect 12 0 11 0;
#X connect 14 0 13 0;
#X connect 15 0 14 0;
#X connect 16 0 15 0;
#X connect 17 0 0 0;
#X connect 18 0 1 0;
#X connect 19 0 2 0;
#X connect 20 0 3 0;
#X connect 21 0 4 0;
#X connect 23 0 30 0;
#X connect 24 0 23 0;
#X connect 25 0 27 0;
#X connect 26 0 24 0;
#X connect 27 0 33 0;
#X connect 28 0 29 0;
#X connect 29 0 27 0;
#X connect 30 0 25 0;
#X connect 32 0 28 0;
#X connect 33 0 34 0;
#X connect 34 0 31 0;
#X connect 35 0 36 0;
#X connect 36 0 41 0;
#X connect 37 0 34 1;
#X connect 38 0 39 0;
#X connect 39 0 37 0;
#X connect 40 0 38 0;
#X connect 41 0 37 0;
#X restore -40 53 pd mod_by_manyfingers;
#X obj 299 267 delwrite~ delaytje 1000;
#X obj 314 208 vd~ delaytje;
#X obj 314 184 sig~;
#X floatatom 314 164 5 0 0 0 - - -, f 5;
#X obj 314 117 random 400;
#X obj 314 140 + 200;
#X obj -87 266 s velocity;
#X obj 242 116 r velocity;
#X obj 242 137 sig~;
#X obj 242 180 lop~ 5;
#X obj 299 243 *~;
#X obj 313 -15 s decayVol;
#X obj 242 159 *~ 0.8;
#X obj 313 -62 loadbang;
#X msg 313 -38 0.9;
#N canvas 776 50 458 383 meanXY 0;
#X obj 30 23 inlet;
#X obj 30 48 route touchesByX;
#X obj 277 132 list length;
#X obj 277 155 / 3;
#X floatatom 277 181 5 0 0 0 - - -, f 5;
#X obj 30 145 list split 3;
#X obj 30 97 until;
#X obj 30 120 list append;
#X obj 110 145 bang;
#X obj 30 71 t b l l;
#X obj 65 233 unpack 0 0 0;
#X obj 99 262 list-group 2;
#X obj 277 199 change;
#X obj 277 226 == 1;
#X floatatom 99 323 5 0 0 0 - - -, f 5;
#X obj 161 291 spigot;
#X obj 30 181 unpack 0 0 0;
#X text 144 349 mean X;
#X obj 338 279 spigot;
#X floatatom 276 319 5 0 0 0 - - -, f 5;
#X text 322 344 mean Y;
#X obj 277 257 list-group 2;
#X obj 99 291 list-mean;
#X obj 277 280 list-mean;
#X obj 99 349 outlet;
#X obj 276 345 outlet;
#X text 174 18 calculate mean X and mean Y from all points.;
#X connect 0 0 1 0;
#X connect 1 0 9 0;
#X connect 2 0 3 0;
#X connect 3 0 4 0;
#X connect 4 0 12 0;
#X connect 5 0 16 0;
#X connect 5 1 7 1;
#X connect 5 1 10 0;
#X connect 5 2 8 0;
#X connect 6 0 7 0;
#X connect 7 0 5 0;
#X connect 8 0 6 1;
#X connect 9 0 6 0;
#X connect 9 1 7 1;
#X connect 9 2 2 0;
#X connect 10 1 11 0;
#X connect 10 2 21 0;
#X connect 11 0 22 0;
#X connect 12 0 11 1;
#X connect 12 0 13 0;
#X connect 12 0 21 1;
#X connect 13 0 15 1;
#X connect 13 0 18 1;
#X connect 14 0 24 0;
#X connect 15 0 14 0;
#X connect 16 1 15 0;
#X connect 16 2 18 0;
#X connect 18 0 19 0;
#X connect 19 0 25 0;
#X connect 21 0 23 0;
#X connect 22 0 14 0;
#X connect 23 0 19 0;
#X restore 57 -12 pd meanXY;
#N canvas 0 22 619 577 drive8voices 0;
#X obj 61 134 list split;
#X floatatom 118 104 5 0 0 0 - - -, f 5;
#X floatatom 89 171 5 0 0 0 - - -, f 5;
#X floatatom 92 38 5 0 0 0 - - -, f 5;
#X obj 92 14 receive Y1;
#X obj 91 81 t b f;
#X floatatom 190 40 5 0 0 0 - - -, f 5;
#X obj 190 17 receive X1;
#X obj 189 117 * 12;
#X floatatom 189 100 5 0 0 0 - - -, f 5;
#X obj 190 79 i;
#X obj 97 190 +;
#X obj 97 254 mtof;
#X obj 97 210 change;
#X obj 190 58 * 3;
#X obj 91 56 * 3;
#X msg 61 103 10 13 15;
#X obj 98 441 pack 0 0;
#X obj 97 276 t b f;
#X obj 97 232 + 36;
#X obj 98 467 outlet;
#X floatatom 59 338 5 0 0 0 - - -, f 5;
#X obj 98 411 + 1;
#X obj 85 367 t f f;
#X obj 37 443 sel 9, f 9;
#X obj 47 298 count_n 9;
#X text 134 298 this counter resets so it doesnt exceed limit that
pd can't handle (and crashes);
#X text 278 19 every touch \, another voice is sent note info based
on position.;
#X connect 0 1 2 0;
#X connect 1 0 0 1;
#X connect 2 0 11 0;
#X connect 3 0 15 0;
#X connect 4 0 3 0;
#X connect 5 0 16 0;
#X connect 5 1 1 0;
#X connect 6 0 14 0;
#X connect 7 0 6 0;
#X connect 8 0 11 1;
#X connect 9 0 8 0;
#X connect 10 0 9 0;
#X connect 11 0 13 0;
#X connect 12 0 18 0;
#X connect 13 0 19 0;
#X connect 14 0 10 0;
#X connect 15 0 5 0;
#X connect 16 0 0 0;
#X connect 17 0 20 0;
#X connect 18 0 25 0;
#X connect 18 1 17 1;
#X connect 19 0 12 0;
#X connect 21 0 23 0;
#X connect 22 0 17 0;
#X connect 22 0 24 0;
#X connect 23 1 22 0;
#X connect 24 0 25 2;
#X connect 25 0 21 0;
#X restore 603 6 pd drive8voices;
#X obj -111 121 r X1;
#X obj 42 123 r Y1;
#X obj -71 385 hip~ 400;
#X obj 47 383 hip~ 400;
#X obj -71 407 *~ 0.3;
#X obj 47 407 *~ 0.3;
#X obj -132 474 snapshot~;
#X obj -132 411 loadbang;
#X msg -132 433 1;
#X obj -132 496 s currentAmp;
#X obj -71 454 abs~;
#X obj 314 27 r currentAmp;
#X obj 314 50 <= 0.0001;
#X obj -132 454 metro 500;
#X obj 314 72 change;
#X obj 314 94 sel 1;
#X obj 479 78 fmvoice;
#X msg 383 -41 0;
#X text -55 -83 RECEIVE FINGER INFORMATION FROM MOBMUPLAT;
#X text 684 -78 TABLET INSTRUMENT FOR KLANKSPEELTUIN;
#X text 685 -65 MARK IJZERMAN \, 2016;
#X obj 823 79 fmvoice;
#X obj 676 78 fmvoice;
#X obj 627 78 fmvoice;
#X obj 528 78 fmvoice;
#X obj 577 78 fmvoice;
#X obj 725 78 fmvoice;
#X obj 774 79 fmvoice;
#X text 693 241 stereo reverb & wetdry controls;
#X text 702 5 contains which notes to play;
#X text 530 -26 every touch sends XY and thus note position to an fmvoice
abstraction \, playing a note.;
#X text 222 71 acelleration makes for more delay;
#X text -73 338 OUT TO DAC!;
#X text 56 -30 take the mean position of ALL X and Y's;
#X connect 0 0 1 0;
#X connect 1 0 2 0;
#X connect 2 0 3 0;
#X connect 2 0 55 0;
#X connect 3 0 5 0;
#X connect 4 0 33 0;
#X connect 5 0 4 0;
#X connect 5 1 39 0;
#X connect 5 1 4 0;
#X connect 5 2 39 1;
#X connect 5 2 4 0;
#X connect 5 3 39 2;
#X connect 5 3 4 0;
#X connect 5 4 39 3;
#X connect 5 4 4 0;
#X connect 5 5 39 4;
#X connect 5 5 4 0;
#X connect 9 0 59 0;
#X connect 10 0 60 0;
#X connect 11 0 14 2;
#X connect 11 1 14 3;
#X connect 12 0 14 2;
#X connect 12 1 14 3;
#X connect 13 0 12 3;
#X connect 13 0 11 3;
#X connect 14 0 7 0;
#X connect 14 1 8 0;
#X connect 15 0 16 0;
#X connect 15 1 17 0;
#X connect 15 2 18 0;
#X connect 15 3 19 0;
#X connect 16 0 30 0;
#X connect 16 0 46 0;
#X connect 17 0 30 1;
#X connect 19 0 29 0;
#X connect 24 0 14 0;
#X connect 24 0 11 0;
#X connect 24 0 40 0;
#X connect 25 0 12 0;
#X connect 25 0 14 1;
#X connect 26 0 24 0;
#X connect 26 0 25 0;
#X connect 31 0 32 0;
#X connect 32 0 14 4;
#X connect 33 0 34 0;
#X connect 35 0 73 0;
#X connect 35 0 78 1;
#X connect 35 1 73 1;
#X connect 35 1 81 0;
#X connect 35 2 81 1;
#X connect 35 2 82 0;
#X connect 35 3 80 0;
#X connect 35 3 82 1;
#X connect 35 4 79 0;
#X connect 35 4 80 1;
#X connect 35 5 79 1;
#X connect 35 5 83 0;
#X connect 35 6 83 1;
#X connect 35 6 84 0;
#X connect 35 7 78 0;
#X connect 35 7 84 1;
#X connect 37 0 6 0;
#X connect 37 0 67 0;
#X connect 38 0 6 1;
#X connect 41 0 11 0;
#X connect 41 0 12 0;
#X connect 41 0 50 1;
#X connect 42 0 41 0;
#X connect 43 0 42 0;
#X connect 44 0 45 0;
#X connect 45 0 43 0;
#X connect 47 0 48 0;
#X connect 48 0 52 0;
#X connect 49 0 50 0;
#X connect 50 0 40 0;
#X connect 52 0 49 0;
#X connect 53 0 54 0;
#X connect 53 0 74 0;
#X connect 54 0 51 0;
#X connect 55 0 27 0;
#X connect 55 1 28 0;
#X connect 56 0 35 0;
#X connect 57 0 15 0;
#X connect 58 0 15 1;
#X connect 59 0 61 0;
#X connect 60 0 62 0;
#X connect 61 0 37 0;
#X connect 62 0 38 0;
#X connect 63 0 66 0;
#X connect 64 0 65 0;
#X connect 65 0 70 0;
#X connect 67 0 63 0;
#X connect 68 0 69 0;
#X connect 69 0 71 0;
#X connect 70 0 63 0;
#X connect 71 0 72 0;
#X connect 72 0 44 0;
#X connect 73 0 25 1;
#X connect 73 0 24 1;
#X connect 74 0 36 0;
#X connect 78 0 24 1;
#X connect 78 0 25 1;
#X connect 79 0 24 1;
#X connect 79 0 25 1;
#X connect 80 0 24 1;
#X connect 80 0 25 1;
#X connect 81 0 24 1;
#X connect 81 0 25 1;
#X connect 82 0 24 0;
#X connect 82 0 25 1;
#X connect 83 0 24 1;
#X connect 83 0 25 1;
#X connect 84 0 24 1;
#X connect 84 0 25 1;
