#N canvas 947 575 859 450 10;
#X obj 12 15 loadbang;
#X obj 10 80 t b b 0;
#X obj 82 124 f;
#X obj 83 150 change;
#X obj 86 199 - 0;
#X obj 84 227 +;
#X obj 126 224 * 0.9;
#X obj 81 249 abs;
#X floatatom 82 279 5 0 0 0 - - -, f 5;
#X obj 83 174 t f f;
#X obj 231 124 f;
#X obj 232 150 change;
#X obj 235 199 - 0;
#X obj 233 227 +;
#X obj 274 224 * 0.9;
#X obj 230 249 abs;
#X floatatom 231 279 5 0 0 0 - - -, f 5;
#X obj 232 174 t f f;
#X obj 73 304 expr sqrt(pow($f1 \, 2) + pow($f2 \, 2));
#X floatatom 71 335 5 0 0 0 - - -, f 5;
#X floatatom 311 328 5 0 0 0 - - -, f 5;
#X obj 311 272 float;
#X obj 368 272 t b f;
#X obj 311 301 atan2;
#X text 365 357 DIRECTION;
#X obj 238 26 inlet;
#X obj 374 29 inlet;
#X obj 71 357 outlet;
#X obj 316 354 outlet;
#X obj 439 136 sel 0;
#X floatatom 464 162 5 0 0 0 - - -, f 5;
#X obj 463 183 change;
#X obj 438 72 expr if ($f1 < 0.5 && $f2 < 0.5 \, 1 \, 0) \; if ($f1
> 0.5 && $f2 < 0.5 \, 2 \, 0) \; if ($f1 < 0.5 && $f2 > 0.5 \, 3 \,
0) \; if ($f1 > 0.5 && $f2 > 0.5 \, 4 \, 0) \;;
#X obj 502 355 outlet;
#X text 118 358 VELOCITY;
#X text 548 355 QUADRANT;
#X text 277 26 X;
#X text 414 26 Y;
#X obj 762 73 t b 1;
#X msg 756 130 0;
#X obj 755 107 delay 50;
#X obj 771 169 outlet;
#X text 735 202 ACTIVITY;
#X obj 319 174 r decayVol;
#X obj 18 127 s bangit;
#X obj 9 56 metro 10;
#X msg 26 37 1;
#X connect 0 0 46 0;
#X connect 1 0 2 0;
#X connect 1 0 44 0;
#X connect 1 1 10 0;
#X connect 1 2 5 0;
#X connect 1 2 13 0;
#X connect 2 0 3 0;
#X connect 3 0 9 0;
#X connect 4 0 5 0;
#X connect 5 0 6 0;
#X connect 5 0 7 0;
#X connect 5 0 21 0;
#X connect 6 0 5 1;
#X connect 7 0 8 0;
#X connect 8 0 18 0;
#X connect 9 0 4 1;
#X connect 9 1 4 0;
#X connect 10 0 11 0;
#X connect 11 0 17 0;
#X connect 12 0 13 0;
#X connect 13 0 14 0;
#X connect 13 0 15 0;
#X connect 13 0 22 0;
#X connect 14 0 13 1;
#X connect 15 0 16 0;
#X connect 16 0 18 1;
#X connect 17 0 12 1;
#X connect 17 1 12 0;
#X connect 18 0 19 0;
#X connect 19 0 27 0;
#X connect 20 0 28 0;
#X connect 21 0 23 0;
#X connect 22 0 21 0;
#X connect 22 1 23 1;
#X connect 23 0 20 0;
#X connect 25 0 2 1;
#X connect 25 0 32 0;
#X connect 25 0 38 0;
#X connect 26 0 10 1;
#X connect 26 0 32 1;
#X connect 26 0 38 0;
#X connect 29 1 30 0;
#X connect 30 0 31 0;
#X connect 31 0 33 0;
#X connect 32 0 29 0;
#X connect 32 1 29 0;
#X connect 32 2 29 0;
#X connect 32 3 29 0;
#X connect 38 0 40 0;
#X connect 38 1 41 0;
#X connect 39 0 41 0;
#X connect 40 0 39 0;
#X connect 43 0 14 1;
#X connect 43 0 6 1;
#X connect 45 0 1 0;
#X connect 46 0 45 0;
