#N canvas 71 148 1433 798 10;
#X obj -155 -85 receive fromGUI;
#X obj -155 -57 list trim;
#X obj -154 -32 route /mt;
#X obj -154 -4 route touch;
#X obj -153 79 unpack 0 0 0;
#X obj -152 20 route 0 1 2 3 4 5 6 7 8 9 10;
#X obj -111 147 XY_coordinate_calculations;
#X floatatom -111 184 5 0 0 0 - - -, f 5;
#X floatatom -60 201 5 0 0 0 - - -, f 5;
#X floatatom -9 226 5 0 0 0 - - -, f 5;
#X obj 42 227 tgl 15 0 empty empty empty 17 7 0 10 -262144 -1 -1 0
1;
#X text -56 184 DIRECTION;
#X text -106 167 VELOCITY;
#X text -5 209 QUADRANT;
#X text 48 242 ACTIVITY;
#X obj 58 11 s X1;
#X obj 107 10 s Y1;
#N canvas 1134 29 461 395 veltovol 0;
#X obj 45 93 sig~;
#X obj 45 118 *~ 2;
#X obj 56 352 send~ veltovol;
#X obj 32 43 inlet;
#X obj 131 97 sig~;
#X obj 52 184 +~;
#X obj 139 125 cumulative_energy;
#X obj 135 23 inlet;
#X obj 131 53 abs;
#X obj 49 231 lop~ 1;
#X obj 111 172 *~;
#X obj 150 147 *~ 2;
#X obj 63 315 +~, f 4;
#X obj 183 282 vline~;
#X msg 274 257 \$1 200;
#X obj 286 157 r fingerOn;
#X obj 134 314 *~ 0.05;
#X connect 0 0 1 0;
#X connect 1 0 5 0;
#X connect 1 0 10 0;
#X connect 3 0 0 0;
#X connect 4 0 6 0;
#X connect 5 0 9 0;
#X connect 6 0 11 0;
#X connect 7 0 8 0;
#X connect 8 0 4 0;
#X connect 9 0 12 0;
#X connect 10 0 5 1;
#X connect 11 0 10 1;
#X connect 12 0 2 0;
#X connect 13 0 16 0;
#X connect 14 0 13 0;
#X connect 15 0 14 0;
#X connect 16 0 12 1;
#X restore -111 234 pd veltovol;
#X obj -153 135 tgl 15 0 empty empty empty 17 7 0 10 -262144 -1 -1
1 1;
#X obj -153 266 s fingerOn;
#X obj -87 266 s velocity;
#N canvas 1105 611 458 383 meanXY 0;
#X obj 30 23 inlet;
#X obj 30 48 route touchesByX;
#X obj 277 132 list length;
#X obj 277 155 / 3;
#X floatatom 277 181 5 0 0 0 - - -, f 5;
#X obj 30 145 list split 3;
#X obj 30 97 until;
#X obj 30 120 list append;
#X obj 110 145 bang;
#X obj 30 71 t b l l;
#X obj 65 233 unpack 0 0 0;
#X obj 99 262 list-group 2;
#X obj 277 199 change;
#X obj 277 226 == 1;
#X floatatom 99 323 5 0 0 0 - - -, f 5;
#X obj 161 291 spigot;
#X obj 30 181 unpack 0 0 0;
#X text 144 349 mean X;
#X obj 338 279 spigot;
#X floatatom 276 319 5 0 0 0 - - -, f 5;
#X text 322 344 mean Y;
#X obj 277 257 list-group 2;
#X obj 99 291 list-mean;
#X obj 277 280 list-mean;
#X obj 99 349 outlet;
#X obj 276 345 outlet;
#X text 174 18 calculate mean X and mean Y from all points.;
#X connect 0 0 1 0;
#X connect 1 0 9 0;
#X connect 2 0 3 0;
#X connect 3 0 4 0;
#X connect 4 0 12 0;
#X connect 5 0 16 0;
#X connect 5 1 7 1;
#X connect 5 1 10 0;
#X connect 5 2 8 0;
#X connect 6 0 7 0;
#X connect 7 0 5 0;
#X connect 8 0 6 1;
#X connect 9 0 6 0;
#X connect 9 1 7 1;
#X connect 9 2 2 0;
#X connect 10 1 11 0;
#X connect 10 2 21 0;
#X connect 11 0 22 0;
#X connect 12 0 11 1;
#X connect 12 0 13 0;
#X connect 12 0 21 1;
#X connect 13 0 15 1;
#X connect 13 0 18 1;
#X connect 14 0 24 0;
#X connect 15 0 14 0;
#X connect 16 1 15 0;
#X connect 16 2 18 0;
#X connect 18 0 19 0;
#X connect 19 0 25 0;
#X connect 21 0 23 0;
#X connect 22 0 14 0;
#X connect 23 0 19 0;
#X restore 57 -12 pd meanXY;
#X obj -111 121 r X1;
#X obj 42 123 r Y1;
#X text -55 -83 RECEIVE FINGER INFORMATION FROM MOBMUPLAT;
#X text 56 -30 take the mean position of ALL X and Y's;
#X text -116 100 calculate vel \, dir \, quadrant and activity;
#X obj 622 -85 cnv 15 300 40 empty empty empty 20 12 0 14 -262130 -66577
0;
#X text 625 -67 MARK IJZERMAN \, 2016;
#X obj 1077 907 dac~;
#X obj -153 173 ||;
#X obj 8 72 s finger1X;
#X obj 77 71 s finger1Y;
#X obj 155 51 unpack 0 0 0;
#X obj 155 77 tgl 15 0 empty empty empty 17 7 0 10 -262144 -1 -1 1
1;
#X obj 154 95 ||;
#X obj 155 117 s finger2On;
#X obj 184 77 s finger2X;
#X obj 252 76 s finger2Y;
#X obj 348 53 unpack 0 0 0;
#X obj 348 79 tgl 15 0 empty empty empty 17 7 0 10 -262144 -1 -1 1
1;
#X obj 347 97 ||;
#X obj 377 79 s finger3X;
#X obj 445 78 s finger3Y;
#X obj 348 119 s finger3On;
#X floatatom 252 115 5 0 0 0 - - -, f 5;
#X obj 1079 879 expr~ tanh($v1);
#N canvas 25 29 669 335 wetdry 0;
#X obj 78 264 outlet~;
#X obj 131 228 *~;
#X obj 53 221 *~;
#X obj 71 165 -;
#X obj 62 139 1;
#X obj 73 113 t b f f;
#X obj 35 34 inlet~;
#X obj 146 33 inlet~;
#X text 32 17 dry sig;
#X obj 368 50 inlet;
#X text 365 33 control;
#X obj 369 88 clip 0 100;
#X obj 369 112 / 100;
#X obj 438 43 loadbang;
#X obj 440 64 \$1;
#X text 141 14 wet sig L;
#X obj 226 35 inlet~;
#X text 221 16 wet sig R;
#X obj 85 35 inlet~;
#X text 83 18 dry sig R;
#X obj 269 236 *~;
#X obj 196 234 *~;
#X obj 214 178 -;
#X obj 205 152 1;
#X obj 216 126 t b f f;
#X obj 223 286 outlet~;
#X connect 1 0 0 0;
#X connect 2 0 0 0;
#X connect 3 0 2 1;
#X connect 4 0 3 0;
#X connect 5 0 4 0;
#X connect 5 1 3 1;
#X connect 5 2 1 1;
#X connect 6 0 2 0;
#X connect 7 0 1 0;
#X connect 9 0 11 0;
#X connect 11 0 12 0;
#X connect 12 0 5 0;
#X connect 12 0 24 0;
#X connect 13 0 14 0;
#X connect 14 0 11 0;
#X connect 16 0 20 0;
#X connect 18 0 21 0;
#X connect 20 0 25 0;
#X connect 21 0 25 0;
#X connect 22 0 21 1;
#X connect 23 0 22 0;
#X connect 24 0 23 0;
#X connect 24 1 22 1;
#X connect 24 2 20 1;
#X restore 1091 838 pd wetdry;
#X obj 1262 770 loadbang;
#X obj 1000 683 vd~ dlline1;
#X obj 41 262 s fingerActivity;
#X text 460 -27 when putting on tablet always remind to unlink secondfinger!!
;
#X obj 1085 765 *~ 0.5;
#X obj 1106 790 rev3~ 100 75 200 100;
#X msg 1263 792 10;
#X obj 1004 739 *~;
#X obj 520 45 unpack 0 0 0;
#X obj 520 71 tgl 15 0 empty empty empty 17 7 0 10 -262144 -1 -1 0
1;
#X obj 519 89 ||;
#X obj 549 71 s finger4X;
#X obj 617 70 s finger4Y;
#X obj 520 111 s finger4On;
#X obj 1131 659 sig~;
#X obj 924 819 delwrite~ dlline1 500;
#X obj 937 779 *~;
#X obj 1036 699 lop~ 0.5;
#X obj 1038 739 clip~ 0 0.7;
#X obj 997 604 sig~;
#X obj 995 625 lop~ 1;
#X obj 995 653 *~ 200;
#X obj 1182 677 lop~ 0.1;
#X obj 1131 679 lop~ 0.5;
#X text 624 -80 RHYTHMREICH INSTRUMENT FOR KLANKSPEELTUIN;
#X obj 913 185 count_n 16;
#X obj 914 65 r fingerOn;
#X obj 913 157 metro 500;
#X obj 914 88 change;
#X obj 1029 75 m_scale 0 1 150 600;
#X obj 907 247 s countBeats;
#X obj 1028 46 invert_scale 0 1;
#X obj 1077 -10 r finger1Y;
#X obj -69 463 euclid 8 0 16;
#X obj -71 442 spigot;
#X obj -38 422 tgl 15 0 empty empty empty 17 7 0 10 -262144 -1 -1 1
1;
#X obj -129 419 r countBeats;
#X obj -38 373 r fingerOn;
#X obj -38 396 change;
#X obj -68 486 bng 15 250 50 0 empty empty empty 17 7 0 10 -262144
-1 -1;
#X text 991 184 reset counter when finger on \, then start;
#X obj 913 111 t l l;
#X obj 938 132 sel 1;
#X obj 1083 737 catch~ toOUT;
#X obj 100 681 + 60;
#N canvas 0 22 501 349 handlenotes 0;
#X obj 31 26 inlet;
#X obj 70 71 t b f;
#X obj 71 262 outlet;
#X floatatom 32 133 5 0 0 0 - - -, f 5;
#X obj 71 206 + 1;
#X obj 58 162 t f f;
#X obj 10 238 sel 9, f 9;
#X text 107 93 this counter resets so it doesnt exceed limit that pd
can't handle (and crashes);
#X obj 19 93 count_n 8;
#X obj 103 38 unpack;
#X obj 71 236 pack 0 0 0;
#X connect 0 0 9 0;
#X connect 1 0 8 0;
#X connect 1 1 10 1;
#X connect 3 0 5 0;
#X connect 4 0 6 0;
#X connect 4 0 10 0;
#X connect 5 1 4 0;
#X connect 6 0 8 2;
#X connect 8 0 3 0;
#X connect 9 0 1 0;
#X connect 9 1 10 2;
#X connect 10 0 2 0;
#X restore 102 753 pd handlenotes;
#X obj 100 793 route 1 2 3 4 5 6 7 8;
#X obj -45 919 throw~ toOUT;
#X obj 39 923 throw~ toOUT;
#X obj 120 925 throw~ toOUT;
#X obj 204 929 throw~ toOUT;
#X obj 284 930 throw~ toOUT;
#X obj 368 934 throw~ toOUT;
#X obj 449 936 throw~ toOUT;
#X obj 533 940 throw~ toOUT;
#X msg -66 508 0;
#X obj -64 552 send toNotes;
#X text 87 620 notes end up here;
#X obj 246 469 euclid 8 0 16;
#X obj 244 448 spigot;
#X obj 277 428 tgl 15 0 empty empty empty 17 7 0 10 -262144 -1 -1 1
1;
#X obj 186 425 r countBeats;
#X obj 277 402 change;
#X obj 247 492 bng 15 250 50 0 empty empty empty 17 7 0 10 -262144
-1 -1;
#X obj 245 570 send toNotes;
#X msg 249 514 3;
#X obj 622 471 euclid 8 0 16;
#X obj 620 450 spigot;
#X obj 653 430 tgl 15 0 empty empty empty 17 7 0 10 -262144 -1 -1 1
1;
#X obj 562 427 r countBeats;
#X obj 653 404 change;
#X obj 623 494 bng 15 250 50 0 empty empty empty 17 7 0 10 -262144
-1 -1;
#X obj 626 564 send toNotes;
#X msg 625 516 5;
#X obj 1012 469 euclid 8 0 16;
#X obj 1010 448 spigot;
#X obj 1043 428 tgl 15 0 empty empty empty 17 7 0 10 -262144 -1 -1
0 1;
#X obj 952 425 r countBeats;
#X obj 1043 402 change;
#X obj 1013 492 bng 15 250 50 0 empty empty empty 17 7 0 10 -262144
-1 -1;
#X obj 1007 553 send toNotes;
#X msg 1015 515 7;
#X obj 97 639 receive toNotes;
#X obj 276 379 r finger2On;
#X obj 653 381 r finger3On;
#X floatatom 362 398 5 0 0 0 - - -, f 5;
#X obj 351 431 m_scale 1 0 2 7;
#X obj 363 336 r finger2X;
#X floatatom 740 406 5 0 0 0 - - -, f 5;
#X obj 729 439 m_scale 1 0 2 7;
#X obj 740 365 r finger3X;
#X floatatom 1136 389 5 0 0 0 - - -, f 5;
#X obj 1125 422 m_scale 1 0 2 7;
#X obj 35 363 r finger1X;
#X floatatom 35 394 5 0 0 0 - - -, f 5;
#X obj 24 427 m_scale 1 0 2 7;
#X obj 691 30 unpack 0 0 0;
#X obj 691 56 tgl 15 0 empty empty empty 17 7 0 10 -262144 -1 -1 0
1;
#X obj 690 74 ||;
#X obj 720 56 s finger5X;
#X obj 788 55 s finger5Y;
#X obj 691 96 s finger5On;
#X obj 1043 379 r finger4On;
#X obj 1136 348 r finger4X;
#X obj 998 581 r finger5X;
#X obj 1128 636 r finger5On;
#X obj 54 463 r finger1Y;
#X obj -67 530 pack;
#X obj 246 546 pack;
#X obj 317 522 r finger2Y;
#X obj 625 540 pack;
#X obj 684 524 r finger3Y;
#X obj 1012 535 pack;
#X obj 1071 519 r finger4Y;
#X obj 100 660 unpack;
#X obj 100 707 pack;
#X obj 107 893 mallets;
#X obj 1016 766 *~ 0.16;
#X obj -1 892 mallets;
#X obj 53 892 mallets;
#X obj 161 893 mallets;
#X obj 214 893 mallets;
#X obj 268 893 mallets;
#X obj 322 894 mallets;
#X obj 380 893 mallets;
#X connect 0 0 1 0;
#X connect 1 0 2 0;
#X connect 2 0 3 0;
#X connect 2 0 21 0;
#X connect 3 0 5 0;
#X connect 4 0 18 0;
#X connect 4 1 31 0;
#X connect 4 2 32 0;
#X connect 5 0 4 0;
#X connect 5 1 33 0;
#X connect 5 1 4 0;
#X connect 5 2 39 0;
#X connect 5 3 56 0;
#X connect 5 4 144 0;
#X connect 6 0 7 0;
#X connect 6 1 8 0;
#X connect 6 2 9 0;
#X connect 6 3 10 0;
#X connect 7 0 17 0;
#X connect 7 0 20 0;
#X connect 8 0 17 1;
#X connect 10 0 50 0;
#X connect 18 0 30 0;
#X connect 21 0 15 0;
#X connect 21 1 16 0;
#X connect 22 0 6 0;
#X connect 23 0 6 1;
#X connect 30 0 19 0;
#X connect 33 0 34 0;
#X connect 33 1 37 0;
#X connect 33 1 45 0;
#X connect 33 2 38 0;
#X connect 34 0 35 0;
#X connect 35 0 36 0;
#X connect 39 0 40 0;
#X connect 39 1 42 0;
#X connect 39 2 43 0;
#X connect 40 0 41 0;
#X connect 41 0 44 0;
#X connect 46 0 29 0;
#X connect 46 0 29 1;
#X connect 47 0 46 0;
#X connect 48 0 54 0;
#X connect 49 0 55 0;
#X connect 52 0 47 0;
#X connect 52 0 53 0;
#X connect 53 0 47 2;
#X connect 53 1 47 3;
#X connect 54 0 47 4;
#X connect 55 0 64 0;
#X connect 55 0 165 0;
#X connect 56 0 57 0;
#X connect 56 1 59 0;
#X connect 56 2 60 0;
#X connect 57 0 58 0;
#X connect 58 0 61 0;
#X connect 62 0 70 0;
#X connect 62 0 71 0;
#X connect 64 0 63 0;
#X connect 65 0 66 0;
#X connect 66 0 64 1;
#X connect 67 0 68 0;
#X connect 68 0 69 0;
#X connect 69 0 49 0;
#X connect 70 0 65 0;
#X connect 71 0 55 1;
#X connect 73 0 78 0;
#X connect 74 0 76 0;
#X connect 75 0 73 0;
#X connect 76 0 89 0;
#X connect 77 0 75 1;
#X connect 79 0 77 0;
#X connect 80 0 79 0;
#X connect 81 0 87 0;
#X connect 82 0 81 0;
#X connect 83 0 82 1;
#X connect 84 0 82 0;
#X connect 85 0 86 0;
#X connect 86 0 83 0;
#X connect 87 0 103 0;
#X connect 89 0 75 0;
#X connect 89 1 90 0;
#X connect 90 0 73 2;
#X connect 91 0 52 0;
#X connect 91 0 63 0;
#X connect 92 0 163 0;
#X connect 93 0 94 0;
#X connect 94 0 166 0;
#X connect 94 1 167 0;
#X connect 94 2 164 0;
#X connect 94 3 168 0;
#X connect 94 4 169 0;
#X connect 94 5 170 0;
#X connect 94 6 171 0;
#X connect 94 7 172 0;
#X connect 103 0 155 0;
#X connect 106 0 111 0;
#X connect 107 0 106 0;
#X connect 108 0 107 1;
#X connect 109 0 107 0;
#X connect 110 0 108 0;
#X connect 111 0 113 0;
#X connect 113 0 156 0;
#X connect 114 0 119 0;
#X connect 115 0 114 0;
#X connect 116 0 115 1;
#X connect 117 0 115 0;
#X connect 118 0 116 0;
#X connect 119 0 121 0;
#X connect 121 0 158 0;
#X connect 122 0 127 0;
#X connect 123 0 122 0;
#X connect 124 0 123 1;
#X connect 125 0 123 0;
#X connect 126 0 124 0;
#X connect 127 0 129 0;
#X connect 129 0 160 0;
#X connect 130 0 162 0;
#X connect 131 0 110 0;
#X connect 132 0 118 0;
#X connect 133 0 134 0;
#X connect 134 0 106 1;
#X connect 135 0 133 0;
#X connect 136 0 137 0;
#X connect 137 0 114 1;
#X connect 138 0 136 0;
#X connect 139 0 140 0;
#X connect 140 0 122 1;
#X connect 141 0 142 0;
#X connect 142 0 143 0;
#X connect 143 0 81 1;
#X connect 144 0 145 0;
#X connect 144 1 147 0;
#X connect 144 2 148 0;
#X connect 145 0 146 0;
#X connect 146 0 149 0;
#X connect 150 0 126 0;
#X connect 151 0 139 0;
#X connect 152 0 67 0;
#X connect 153 0 62 0;
#X connect 154 0 155 1;
#X connect 155 0 104 0;
#X connect 156 0 112 0;
#X connect 157 0 156 1;
#X connect 158 0 120 0;
#X connect 159 0 158 1;
#X connect 160 0 128 0;
#X connect 161 0 160 1;
#X connect 162 0 92 0;
#X connect 162 1 163 1;
#X connect 163 0 93 0;
#X connect 164 0 97 0;
#X connect 165 0 52 0;
#X connect 166 0 95 0;
#X connect 167 0 96 0;
#X connect 168 0 98 0;
#X connect 169 0 99 0;
#X connect 170 0 100 0;
#X connect 171 0 101 0;
#X connect 172 0 102 0;
