#N canvas 800 240 1080 752 10;
#X obj 107 233 vline~;
#X obj 70 296 *~;
#X obj 308 159 mtof;
#X floatatom 308 139 5 0 0 2 fc - -, f 5;
#X floatatom 379 221 5 1 5000 2 Q - -, f 5;
#X obj 222 244 *~ 0;
#X obj 256 244 tgl 15 0 empty empty osc 17 7 1 10 -262144 -1 -1 0 1
;
#X obj 221 218 osc~;
#X obj 221 196 + 0;
#X obj 221 171 t b a;
#X floatatom 221 152 5 0 0 2 detune - -, f 5;
#X floatatom 308 187 5 0 0 0 - - -, f 5;
#X obj 130 514 clip~ -1 1;
#X obj 482 228 * 2;
#X obj 302 414 e_resonzq 2000 100 2;
#X obj 419 279 * 3;
#X obj 299 442 *~ 0.25;
#X obj 151 4 inlet;
#X text 225 46 midinote in and bang;
#X obj 135 561 outlet~;
#X obj 107 418 e_resonzq 2000 82 2;
#X obj 98 86 random 4000;
#X obj 21 185 lop~ 800;
#X obj 95 121 + 1000;
#X msg 96 197 1 1 \, 0 1 11;
#X obj 7 110 s_pinknoise;
#X obj 148 48 t b f b;
#X obj 155 26 unpack;
#X obj 383 90 m_scale 0 1 20 250;
#X connect 0 0 1 1;
#X connect 1 0 14 0;
#X connect 1 0 20 0;
#X connect 2 0 8 0;
#X connect 2 0 11 0;
#X connect 3 0 2 0;
#X connect 4 0 20 2;
#X connect 5 0 20 0;
#X connect 6 0 5 1;
#X connect 7 0 5 0;
#X connect 8 0 7 0;
#X connect 9 0 8 0;
#X connect 9 1 8 1;
#X connect 10 0 9 0;
#X connect 11 0 13 0;
#X connect 11 0 20 1;
#X connect 12 0 19 0;
#X connect 13 0 15 0;
#X connect 14 0 16 0;
#X connect 15 0 14 1;
#X connect 16 0 12 0;
#X connect 17 0 27 0;
#X connect 20 0 12 0;
#X connect 21 0 23 0;
#X connect 22 0 1 0;
#X connect 23 0 22 1;
#X connect 24 0 0 0;
#X connect 25 0 22 0;
#X connect 26 0 24 0;
#X connect 26 1 3 0;
#X connect 26 2 21 0;
#X connect 27 0 26 0;
#X connect 27 1 28 0;
#X connect 28 0 4 0;
