#N canvas 0 22 587 405 10;
#X obj 37 173 expr sqrt(pow(($f2 - $f1) \, 2) + (pow(($f4 - $f3) \,
2)));
#X obj 34 61 r X1;
#X obj 254 61 r Y1;
#X obj 139 15 inlet;
#X text 178 14 Xx;
#X obj 325 19 inlet Yx;
#X obj 44 236 outlet;
#X text 97 237 distance_out;
#X obj 163 72 t b f;
#X obj 326 70 t b f;
#X connect 0 0 6 0;
#X connect 1 0 0 0;
#X connect 2 0 0 2;
#X connect 3 0 8 0;
#X connect 5 0 9 0;
#X connect 8 0 0 0;
#X connect 8 1 0 1;
#X connect 9 0 0 0;
#X connect 9 1 0 3;
