#N canvas 129 123 445 445 10;
#X obj 129 121 *~;
#X obj 129 71 clip~ 0 1;
#X obj 45 71 clip~ -1 0;
#X obj 45 96 *~ -1;
#X obj 45 120 *~;
#X obj 45 231 -~ 1;
#X obj 129 166 *~ -1;
#X obj 129 263 +~ 1;
#X obj 129 143 expr~ exp(-($v1*1000)/100);
#X obj 45 205 expr~ exp(-($v1*1000)/100);
#X obj 129 298 /~;
#X obj 117 46 inlet~;
#X obj 309 48 inlet;
#X obj 129 360 outlet~;
#X obj 309 72 smth~;
#X obj 190 246 expr~ 1 - exp(-($v1*1000)/100);
#X connect 0 0 8 0;
#X connect 1 0 0 0;
#X connect 2 0 3 0;
#X connect 3 0 4 0;
#X connect 4 0 9 0;
#X connect 5 0 7 0;
#X connect 6 0 7 0;
#X connect 7 0 10 0;
#X connect 8 0 6 0;
#X connect 9 0 5 0;
#X connect 10 0 13 0;
#X connect 11 0 2 0;
#X connect 11 0 1 0;
#X connect 12 0 14 0;
#X connect 14 0 0 1;
#X connect 14 0 4 1;
#X connect 14 0 15 0;
#X connect 15 0 10 1;
