#N canvas 464 357 458 308 10;
#X obj 195 72 expr 1-$f1;
#X obj 105 73 * -1;
#X obj 148 51 moses;
#X obj 105 92 expr 1-$f1;
#X obj 105 193 * -1;
#X obj 148 16 inlet;
#X obj 105 246 outlet;
#X obj 105 165 expr exp(-($f1*10)/1.75);
#X obj 195 145 expr exp(-($f1*10)/1.75);
#X connect 0 0 8 0;
#X connect 1 0 3 0;
#X connect 2 0 1 0;
#X connect 2 1 0 0;
#X connect 3 0 7 0;
#X connect 4 0 6 0;
#X connect 5 0 2 0;
#X connect 7 0 4 0;
#X connect 8 0 6 0;
