#N canvas 4 22 936 664 10;
#X obj 360 452 *~;
#X obj 360 479 +~;
#X obj 360 504 *~;
#X obj 476 233 nbx 5 14 0 1e+37 0 1 empty empty Atack 0 -6 1 10 -262144
-1 -1 1 256;
#X obj 383 282 del;
#X msg 360 234 0;
#X obj 234 158 tgl 15 0 empty empty empty 0 -6 0 8 -262144 -1 -1 0
1;
#X obj 234 175 moses 1;
#X obj 234 198 t b;
#X obj 780 333 nbx 5 14 0 1e+37 0 1 empty empty Release 0 -6 1 10 -262144
-1 -1 172.163 256;
#X obj 476 262 nbx 5 14 0 1e+37 0 1 empty empty Decay 0 -6 1 10 -262144
-1 -1 170 256;
#X text 285 310 curve;
#X text 395 236 high;
#X text 316 198 1: when trig goes high;
#X text 394 226 2: set D;
#X text 285 300 3: start A;
#X text 413 281 4: and start timer for D to start;
#X text 460 299 5: when A is done \, D starts;
#X text 411 467 rest at this level;
#X text 411 453 6: when D is done;
#X text 144 195 7: when trig;
#X text 146 208 goes low;
#X text 115 367 7: start R curve;
#X obj 360 565 outlet~;
#X obj 172 142 inlet;
#X obj 476 135 inlet;
#X obj 553 135 inlet;
#X obj 693 135 inlet;
#X obj 726 356 pack 0 f;
#X obj 278 283 pack 1 f;
#X obj 383 299 pack -5 f;
#X obj 421 565 outlet;
#X obj 278 198 t b;
#X obj 360 527 *~;
#X obj 613 135 inlet~;
#X obj 278 426 *~ -5;
#X obj 247 453 expr~ exp($v1);
#X obj 360 361 expr~ exp($v1);
#X obj 360 341 lop~ 1000;
#X obj 588 436 *~ -5;
#X obj 557 463 expr~ exp($v1);
#X msg 240 373 0 1;
#X obj 234 351 del 11;
#X obj 234 231 del 17;
#X obj 278 231 del 17;
#X msg 671 356 0 7;
#X msg 588 380 1;
#X obj 588 353 del 13;
#X obj 526 513 lop~ 1000;
#X obj 693 425 del 15;
#X msg 693 448 100 5;
#X obj 659 487 line;
#X msg 597 486 1000;
#X obj 588 410 vline~;
#X obj 360 320 vline~;
#X obj 278 400 vline~;
#X obj 432 264 + 1;
#X obj 753 135 inlet;
#X obj 595 233 t b;
#X obj 376 429 expr~ 1 - $v1;
#X obj 247 477 expr~ 1 - $v1;
#X obj 497 486 expr~ 1 - $v1;
#X obj 745 610 outlet;
#X text 748 425 filter signal;
#X text 747 447 down after attack;
#X text 728 470 to smooth transients;
#X obj 764 555 del;
#X obj 764 575 f 0;
#X obj 719 575 f 1;
#X obj 780 534 + 50;
#X obj 421 533 del 14.5;
#X text 802 557 gate for switch~;
#X text 472 566 sync trig. for lfo and osc;
#X text 706 490 at end of releas curve.;
#X connect 0 0 1 0;
#X connect 1 0 2 0;
#X connect 2 0 33 0;
#X connect 3 0 29 1;
#X connect 3 0 56 0;
#X connect 4 0 30 0;
#X connect 5 0 54 0;
#X connect 6 0 7 0;
#X connect 7 0 8 0;
#X connect 7 1 32 0;
#X connect 8 0 43 0;
#X connect 9 0 28 1;
#X connect 9 0 69 0;
#X connect 10 0 30 1;
#X connect 24 0 6 0;
#X connect 25 0 3 0;
#X connect 26 0 10 0;
#X connect 27 0 9 0;
#X connect 28 0 53 0;
#X connect 29 0 55 0;
#X connect 30 0 54 0;
#X connect 32 0 42 0;
#X connect 32 0 45 0;
#X connect 32 0 44 0;
#X connect 32 0 47 0;
#X connect 32 0 49 0;
#X connect 32 0 68 0;
#X connect 32 0 70 0;
#X connect 33 0 23 0;
#X connect 34 0 1 1;
#X connect 34 0 59 0;
#X connect 35 0 36 0;
#X connect 36 0 60 0;
#X connect 37 0 0 0;
#X connect 38 0 37 0;
#X connect 39 0 40 0;
#X connect 40 0 61 0;
#X connect 41 0 55 0;
#X connect 42 0 41 0;
#X connect 43 0 28 0;
#X connect 43 0 66 0;
#X connect 44 0 29 0;
#X connect 44 0 4 0;
#X connect 44 0 5 0;
#X connect 45 0 53 0;
#X connect 46 0 53 0;
#X connect 47 0 46 0;
#X connect 48 0 33 1;
#X connect 49 0 50 0;
#X connect 50 0 51 0;
#X connect 51 0 48 1;
#X connect 52 0 48 1;
#X connect 53 0 39 0;
#X connect 54 0 38 0;
#X connect 55 0 35 0;
#X connect 56 0 4 1;
#X connect 57 0 56 1;
#X connect 57 0 58 0;
#X connect 58 0 56 0;
#X connect 59 0 0 1;
#X connect 60 0 2 1;
#X connect 61 0 48 0;
#X connect 66 0 67 0;
#X connect 67 0 62 0;
#X connect 68 0 62 0;
#X connect 69 0 66 1;
#X connect 70 0 31 0;
#X connect 70 0 52 0;
#X coords 0 0 1 1 85 60 0;
