#N canvas 825 477 543 627 10;
#X obj 103 66 inlet~;
#X obj 111 233 -~;
#X obj 111 257 abs~;
#X obj 112 317 +~;
#X obj 197 336 outlet~;
#X obj 176 286 delread~ \$0-cumula2 5;
#X obj 112 432 delwrite~ \$0-cumula2 5;
#X obj 111 286 *~ 1;
#X obj 119 119 delread~ \$0-cumula 10;
#X obj 119 98 delwrite~ \$0-cumula 10;
#X obj 111 372 lop~ 200;
#X obj 112 344 *~ 0.9;
#X connect 0 0 1 0;
#X connect 0 0 9 0;
#X connect 1 0 2 0;
#X connect 2 0 7 0;
#X connect 3 0 11 0;
#X connect 5 0 3 1;
#X connect 5 0 4 0;
#X connect 7 0 3 0;
#X connect 8 0 1 1;
#X connect 10 0 6 0;
#X connect 11 0 10 0;
