#N canvas 53 163 642 543 10;
#X obj 43 333 +~;
#X obj 58 302 *~ 140;
#X floatatom 265 103 5 0 0 0 - - -, f 5;
#X obj 58 266 osc~ 1;
#X floatatom 43 141 5 0 0 0 - - -, f 5;
#X obj 43 357 osc~;
#X obj 43 381 *~ 0.8;
#X text 42 117 Carrier;
#X obj 43 23 inlet;
#X obj 58 215 * 2;
#X obj 43 443 outlet~;
#X obj 43 415 *~;
#X obj 114 380 vline~;
#X obj 114 312 t b;
#X obj 114 291 inlet;
#X obj 170 312 t b;
#X obj 73 164 r modulator;
#X obj 265 76 r moddepth;
#X obj 148 164 *~;
#X obj 163 142 r randdepth;
#X obj 58 236 +~;
#X obj 148 79 random 1000;
#X obj 148 59 metro 10;
#X obj 148 100 sig~;
#X obj 148 122 lop~ 5;
#X obj 148 16 loadbang;
#X msg 148 37 1;
#X obj 73 186 abs;
#X msg 170 336 1 50;
#X obj 266 125 clip 0 20000;
#X msg 114 336 0 100;
#X obj 251 154 +;
#X obj 252 17 receive mod_from_velocity;
#X text 435 13 FM VOICE;
#X text 384 51 the modulator is driven by all sorts of parameters:
the acceleration \, but also the amount of fingers. Carrier is based
on the note.;
#X connect 0 0 5 0;
#X connect 1 0 0 1;
#X connect 2 0 29 0;
#X connect 3 0 1 0;
#X connect 4 0 0 0;
#X connect 5 0 6 0;
#X connect 6 0 11 0;
#X connect 8 0 4 0;
#X connect 8 0 9 0;
#X connect 8 0 15 0;
#X connect 9 0 20 0;
#X connect 11 0 10 0;
#X connect 12 0 11 1;
#X connect 13 0 30 0;
#X connect 14 0 13 0;
#X connect 15 0 28 0;
#X connect 16 0 27 0;
#X connect 17 0 2 0;
#X connect 18 0 20 1;
#X connect 19 0 18 1;
#X connect 20 0 3 0;
#X connect 21 0 23 0;
#X connect 22 0 21 0;
#X connect 23 0 24 0;
#X connect 24 0 18 0;
#X connect 25 0 26 0;
#X connect 26 0 22 0;
#X connect 27 0 9 1;
#X connect 28 0 12 0;
#X connect 29 0 31 1;
#X connect 30 0 12 0;
#X connect 31 0 1 1;
#X connect 32 0 31 0;
