#N canvas 311 211 1309 803 10;
#X obj -155 -85 receive fromGUI;
#X obj -155 -57 list trim;
#X obj -154 -32 route /mt;
#X obj -154 -4 route touch;
#X obj -153 79 unpack 0 0 0;
#X obj -154 21 route 0 1 2 3 4 5 6 7 8 9 10;
#X obj -111 147 XY_coordinate_calculations;
#X floatatom -111 184 5 0 0 0 - - -, f 5;
#X floatatom -60 201 5 0 0 0 - - -, f 5;
#X floatatom -9 226 5 0 0 0 - - -, f 5;
#X obj 42 227 tgl 15 0 empty empty empty 17 7 0 10 -262144 -1 -1 0
1;
#X text -56 184 DIRECTION;
#X text -106 167 VELOCITY;
#X text -5 209 QUADRANT;
#X text 48 242 ACTIVITY;
#X obj 58 11 s X1;
#X obj 107 10 s Y1;
#X obj 41 261 s firstFingerActivity;
#N canvas 1134 29 461 395 veltovol 0;
#X obj 45 93 sig~;
#X obj 45 118 *~ 2;
#X obj 56 352 send~ veltovol;
#X obj 32 43 inlet;
#X obj 131 97 sig~;
#X obj 52 184 +~;
#X obj 139 125 cumulative_energy;
#X obj 135 23 inlet;
#X obj 131 53 abs;
#X obj 49 231 lop~ 1;
#X obj 111 172 *~;
#X obj 150 147 *~ 2;
#X obj 63 315 +~, f 4;
#X obj 183 282 vline~;
#X msg 274 257 \$1 200;
#X obj 286 157 r fingerOn;
#X obj 134 314 *~ 0.05;
#X connect 0 0 1 0;
#X connect 1 0 5 0;
#X connect 1 0 10 0;
#X connect 3 0 0 0;
#X connect 4 0 6 0;
#X connect 5 0 9 0;
#X connect 6 0 11 0;
#X connect 7 0 8 0;
#X connect 8 0 4 0;
#X connect 9 0 12 0;
#X connect 10 0 5 1;
#X connect 11 0 10 1;
#X connect 12 0 2 0;
#X connect 13 0 16 0;
#X connect 14 0 13 0;
#X connect 15 0 14 0;
#X connect 16 0 12 1;
#X restore -111 234 pd veltovol;
#X obj -153 135 tgl 15 0 empty empty empty 17 7 0 10 -262144 -1 -1
0 1;
#X obj -153 266 s fingerOn;
#X obj -87 266 s velocity;
#N canvas 776 50 458 383 meanXY 0;
#X obj 30 23 inlet;
#X obj 30 48 route touchesByX;
#X obj 277 132 list length;
#X obj 277 155 / 3;
#X floatatom 277 181 5 0 0 0 - - -, f 5;
#X obj 30 145 list split 3;
#X obj 30 97 until;
#X obj 30 120 list append;
#X obj 110 145 bang;
#X obj 30 71 t b l l;
#X obj 65 233 unpack 0 0 0;
#X obj 99 262 list-group 2;
#X obj 277 199 change;
#X obj 277 226 == 1;
#X floatatom 99 323 5 0 0 0 - - -, f 5;
#X obj 161 291 spigot;
#X obj 30 181 unpack 0 0 0;
#X text 144 349 mean X;
#X obj 338 279 spigot;
#X floatatom 276 319 5 0 0 0 - - -, f 5;
#X text 322 344 mean Y;
#X obj 277 257 list-group 2;
#X obj 99 291 list-mean;
#X obj 277 280 list-mean;
#X obj 99 349 outlet;
#X obj 276 345 outlet;
#X text 174 18 calculate mean X and mean Y from all points.;
#X connect 0 0 1 0;
#X connect 1 0 9 0;
#X connect 2 0 3 0;
#X connect 3 0 4 0;
#X connect 4 0 12 0;
#X connect 5 0 16 0;
#X connect 5 1 7 1;
#X connect 5 1 10 0;
#X connect 5 2 8 0;
#X connect 6 0 7 0;
#X connect 7 0 5 0;
#X connect 8 0 6 1;
#X connect 9 0 6 0;
#X connect 9 1 7 1;
#X connect 9 2 2 0;
#X connect 10 1 11 0;
#X connect 10 2 21 0;
#X connect 11 0 22 0;
#X connect 12 0 11 1;
#X connect 12 0 13 0;
#X connect 12 0 21 1;
#X connect 13 0 15 1;
#X connect 13 0 18 1;
#X connect 14 0 24 0;
#X connect 15 0 14 0;
#X connect 16 1 15 0;
#X connect 16 2 18 0;
#X connect 18 0 19 0;
#X connect 19 0 25 0;
#X connect 21 0 23 0;
#X connect 22 0 14 0;
#X connect 23 0 19 0;
#X restore 57 -12 pd meanXY;
#X obj -111 121 r X1;
#X obj 42 123 r Y1;
#X text -55 -83 RECEIVE FINGER INFORMATION FROM MOBMUPLAT;
#X text 56 -30 take the mean position of ALL X and Y's;
#X text -116 100 calculate vel \, dir \, quadrant and activity;
#X obj 622 -85 cnv 15 300 40 empty empty empty 20 12 0 14 -262130 -66577
0;
#X text 625 -67 MARK IJZERMAN \, 2016;
#X text 624 -80 RHYTHM INSTRUMENT FOR KLANKSPEELTUIN;
#X obj 115 480 mbass/mbass~;
#X obj 20 734 dac~;
#X obj 667 643 snare1;
#X obj 658 698 throw~ out;
#X obj 115 632 throw~ out;
#X obj 1034 903 throw~ out;
#X obj 22 699 catch~ out;
#X obj 194 77 unpack 0 0 0;
#X obj 194 133 tgl 15 0 empty empty empty 17 7 0 10 -262144 -1 -1 0
1;
#X obj 357 78 unpack 0 0 0;
#X obj 357 134 tgl 15 0 empty empty empty 17 7 0 10 -262144 -1 -1 0
1;
#X obj 1031 779 noise~;
#X obj 1030 849 *~;
#X obj 1105 789 vline~;
#X msg 1110 757 1 10 \, 0 0 20;
#X obj 1027 811 hip~ 3000;
#X obj 1033 875 *~ 0.5;
#X obj 384 410 bng 15 250 50 0 empty empty empty 17 7 0 10 -262144
-1 -1;
#X obj 548 64 metro 200;
#X obj 548 89 f 0;
#X obj 582 90 + 1;
#X obj 548 44 tgl 15 0 empty empty empty 17 7 0 10 -262144 -1 -1 1
1;
#X obj 455 262 bng 64 250 50 0 empty empty empty 17 7 0 10 -262144
-1 -1;
#X floatatom 558 142 5 0 0 0 - - -, f 5;
#X obj 548 117 mod 16;
#X obj 382 381 c_taptap 16;
#X obj 1016 192 throw~ out;
#X obj 1092 25 bng 15 250 50 0 empty empty empty 17 7 0 10 -262144
-1 -1;
#X obj 1012 138 *~;
#X obj 1087 78 vline~;
#X obj 1009 100 hip~ 3000;
#X obj 1045 164 *~ 2;
#X msg 1092 47 1 1 \, 0 0 20;
#X obj 1013 68 osc~ 1000;
#N canvas 0 22 653 389 click 0;
#X obj 350 136 bng 15 250 50 0 empty empty empty 17 7 0 10 -262144
-1 -1;
#X obj 102 44 noise~;
#X obj 270 249 *~;
#X obj 345 189 vline~;
#X obj 273 276 *~ 2;
#X msg 350 157 1 1 \, 0 10 20;
#X obj 108 79 bng 15 250 50 0 empty empty empty 17 7 0 10 -262144 -1
-1;
#X obj 28 192 *~;
#X obj 103 132 vline~;
#X obj 201 111 bp~ 1000 10;
#X obj 202 136 bp~ 1000 10;
#X obj 24 154 hip~ 8000;
#X msg 108 100 1 0 \, 0 0 10;
#X obj 205 163 bp~ 1000 20;
#X obj 166 228 *~ 0.1;
#X obj 427 218 sel 0 1;
#X obj 381 297 vline~;
#X obj 293 327 *~;
#X msg 420 262 1 10;
#X msg 373 262 0 3000;
#X obj 536 37 bng 15 250 50 0 empty empty empty 17 7 0 10 -262144 -1
-1;
#X obj 460 123 *~;
#X obj 531 90 vline~;
#X msg 536 59 1 1 \, 0 0 20;
#X obj 457 80 osc~ 1000;
#X obj 458 154 *~ 0.2;
#X obj 334 36 inlet;
#X obj 289 363 outlet~;
#X obj 437 199 inlet;
#X connect 0 0 5 0;
#X connect 1 0 9 0;
#X connect 1 0 11 0;
#X connect 2 0 4 0;
#X connect 3 0 2 1;
#X connect 4 0 17 0;
#X connect 5 0 3 0;
#X connect 6 0 12 0;
#X connect 7 0 14 0;
#X connect 8 0 7 1;
#X connect 9 0 10 0;
#X connect 10 0 13 0;
#X connect 11 0 7 0;
#X connect 12 0 8 0;
#X connect 13 0 2 0;
#X connect 14 0 4 0;
#X connect 15 0 19 0;
#X connect 15 1 18 0;
#X connect 16 0 17 1;
#X connect 17 0 27 0;
#X connect 18 0 16 0;
#X connect 19 0 16 0;
#X connect 20 0 23 0;
#X connect 21 0 25 0;
#X connect 22 0 21 1;
#X connect 23 0 22 0;
#X connect 24 0 21 0;
#X connect 25 0 4 0;
#X connect 26 0 6 0;
#X connect 26 0 0 0;
#X connect 26 0 20 0;
#X connect 28 0 15 0;
#X restore 1098 420 pd click;
#X obj 1098 452 throw~ out;
#X obj 1147 397 tgl 15 0 empty empty empty 17 7 0 10 -262144 -1 -1
0 1;
#X obj 1146 370 r fingerOn;
#X text 628 -45 neem stemming synth mee in click enzo;
#X obj 1097 348 mod 4;
#X obj 1097 371 sel 0;
#X obj 1098 392 bng 15 250 50 0 empty empty empty 17 7 0 10 -262144
-1 -1;
#X obj 469 145 s count16s;
#X obj 1097 326 r count16s;
#X msg 565 364 clear;
#X obj 372 324 r count16s;
#X obj 383 457 once;
#X obj 405 431 loadbang;
#X obj 440 456 delay 150;
#X obj 455 331 t b b b;
#X obj 584 220 r count16s;
#X obj 582 248 t b;
#X obj 581 291 + 1;
#X floatatom 640 315 5 0 0 0 - - -, f 5;
#X obj 677 545 bng 15 250 50 0 empty empty empty 17 7 0 10 -262144
-1 -1;
#X obj 748 397 bng 64 250 50 0 empty empty empty 17 7 0 10 -262144
-1 -1;
#X obj 675 516 c_taptap 16;
#X msg 858 499 clear;
#X obj 665 459 r count16s;
#X obj 676 592 once;
#X obj 698 566 loadbang;
#X obj 733 591 delay 150;
#X obj 748 466 t b b b;
#X obj 877 355 r count16s;
#X obj 875 383 t b;
#X obj 874 426 + 1;
#X floatatom 933 450 5 0 0 0 - - -, f 5;
#X obj 784 490 once;
#X obj 809 466 loadbang;
#X obj 580 271 count_n 128;
#X obj 581 311 sel 128;
#X obj 874 406 count_n 128;
#X obj 873 446 sel 128;
#X obj 978 694 bng 15 250 50 0 empty empty empty 17 7 0 10 -262144
-1 -1;
#X obj 1049 546 bng 64 250 50 0 empty empty empty 17 7 0 10 -262144
-1 -1;
#X obj 976 665 c_taptap 16;
#X msg 1159 648 clear;
#X obj 966 608 r count16s;
#X obj 977 741 once;
#X obj 999 715 loadbang;
#X obj 1034 740 delay 150;
#X obj 1049 615 t b b b;
#X obj 1178 504 r count16s;
#X obj 1176 532 t b;
#X obj 1175 575 + 1;
#X floatatom 1234 599 5 0 0 0 - - -, f 5;
#X obj 1085 639 once;
#X obj 1110 615 loadbang;
#X obj 1175 555 count_n 128;
#X obj 1174 595 sel 128;
#X connect 0 0 1 0;
#X connect 1 0 2 0;
#X connect 2 0 3 0;
#X connect 2 0 22 0;
#X connect 3 0 5 0;
#X connect 4 0 19 0;
#X connect 5 0 4 0;
#X connect 5 1 4 0;
#X connect 5 2 38 0;
#X connect 5 2 4 0;
#X connect 5 3 40 0;
#X connect 5 3 4 0;
#X connect 5 4 4 0;
#X connect 6 0 7 0;
#X connect 6 1 8 0;
#X connect 6 2 9 0;
#X connect 6 3 10 0;
#X connect 7 0 18 0;
#X connect 7 0 21 0;
#X connect 8 0 18 1;
#X connect 10 0 17 0;
#X connect 19 0 20 0;
#X connect 22 0 15 0;
#X connect 22 1 16 0;
#X connect 23 0 6 0;
#X connect 24 0 6 1;
#X connect 31 0 35 0;
#X connect 33 0 34 0;
#X connect 37 0 32 0;
#X connect 37 0 32 1;
#X connect 38 0 39 0;
#X connect 40 0 41 0;
#X connect 42 0 46 0;
#X connect 43 0 47 0;
#X connect 44 0 43 1;
#X connect 45 0 44 0;
#X connect 46 0 43 0;
#X connect 47 0 36 0;
#X connect 48 0 77 0;
#X connect 49 0 50 0;
#X connect 50 0 55 0;
#X connect 51 0 50 1;
#X connect 52 0 49 0;
#X connect 53 0 80 0;
#X connect 55 0 51 0;
#X connect 55 0 54 0;
#X connect 55 0 73 0;
#X connect 56 0 48 0;
#X connect 58 0 63 0;
#X connect 59 0 62 0;
#X connect 60 0 59 1;
#X connect 61 0 59 0;
#X connect 62 0 57 0;
#X connect 63 0 60 0;
#X connect 64 0 61 0;
#X connect 65 0 66 0;
#X connect 67 0 65 1;
#X connect 68 0 67 0;
#X connect 70 0 71 0;
#X connect 71 0 72 0;
#X connect 72 0 65 0;
#X connect 74 0 70 0;
#X connect 75 0 56 1;
#X connect 76 0 56 0;
#X connect 77 0 79 0;
#X connect 77 0 31 1;
#X connect 78 0 77 1;
#X connect 79 0 77 1;
#X connect 80 0 56 1;
#X connect 80 1 48 0;
#X connect 80 2 100 2;
#X connect 81 0 82 0;
#X connect 82 0 100 0;
#X connect 83 0 84 0;
#X connect 83 0 101 0;
#X connect 85 0 90 0;
#X connect 86 0 93 0;
#X connect 87 0 85 0;
#X connect 88 0 87 1;
#X connect 89 0 87 0;
#X connect 90 0 92 0;
#X connect 90 0 33 0;
#X connect 91 0 90 1;
#X connect 92 0 90 1;
#X connect 93 0 87 1;
#X connect 93 1 85 0;
#X connect 93 2 98 0;
#X connect 94 0 95 0;
#X connect 95 0 102 0;
#X connect 96 0 97 0;
#X connect 96 0 103 0;
#X connect 98 0 102 2;
#X connect 99 0 98 1;
#X connect 100 0 83 0;
#X connect 101 0 75 0;
#X connect 102 0 96 0;
#X connect 103 0 88 0;
#X connect 103 0 98 1;
#X connect 104 0 109 0;
#X connect 105 0 112 0;
#X connect 106 0 104 0;
#X connect 107 0 106 1;
#X connect 108 0 106 0;
#X connect 109 0 111 0;
#X connect 109 0 45 0;
#X connect 110 0 109 1;
#X connect 111 0 109 1;
#X connect 112 0 106 1;
#X connect 112 1 104 0;
#X connect 112 2 117 0;
#X connect 113 0 114 0;
#X connect 114 0 119 0;
#X connect 115 0 116 0;
#X connect 115 0 120 0;
#X connect 117 0 119 2;
#X connect 118 0 117 1;
#X connect 119 0 115 0;
#X connect 120 0 107 0;
#X connect 120 0 117 1;
