#N canvas 675 404 711 586 10;
#X obj 11 277 osc~ 330;
#X obj 65 282 osc~ 180;
#X obj 118 204 vline~;
#X obj 17 203 vline~;
#X obj 13 319 *~;
#X obj 81 319 *~;
#X obj 32 230 *~;
#X obj 117 231 *~;
#X obj 245 299 noise~;
#X obj 240 204 vline~;
#X obj 239 231 *~;
#X obj 341 204 vline~;
#X obj 340 231 *~;
#X obj 225 365 *~;
#X obj 301 404 *~;
#X obj 226 404 *~ 0.5;
#X obj 82 347 *~ 0.75;
#X obj 245 328 lop~ 1000;
#X obj 265 365 hip~ 950;
#X msg 117 184 1 0 0 \, 0 70 0;
#X msg 17 183 1 0 0 \, 0 40 0;
#X msg 239 184 1 0 0 \, 0 50 0;
#X msg 341 184 1 0 0 \, 0 35 0;
#X obj 465 324 switch~;
#X obj 465 304 tgl 15 0 empty empty empty 0 -6 0 10 -262144 -1 -1 0
1;
#X msg 465 261 1;
#X msg 491 261 0;
#X floatatom 491 221 5 0 0 0 - - -, f 5;
#X obj 491 239 sel 0;
#X obj 176 81 t b b b;
#X msg 491 177 1 0 \, 0 75;
#X obj 491 199 line 1 75;
#X obj 176 59 bng 15 250 50 0 empty empty empty 17 7 0 10 -262144 -1
-1;
#X msg 195 145 bang;
#X obj 212 531 *~;
#X obj 338 376 vsl 15 128 0 1 0 0 empty empty empty 0 -8 0 10 -262144
-1 -1 12700 1;
#X text 356 434 volume;
#X obj 338 334 loadbang;
#X msg 338 353 1;
#X text 208 57 hit it;
#X text 408 337 audio computation on/off;
#X text 181 167 envelopes;
#X text 508 567 sg 2008;
#X floatatom 70 251 5 0 0 0 - - -, f 5;
#X floatatom 14 253 5 0 0 0 - - -, f 5;
#X obj 4 7 inlet;
#X obj 189 560 outlet~;
#X obj 70 217 inlet;
#X obj 7 228 inlet;
#X floatatom 300 288 5 0 0 0 - - -, f 5;
#X obj 295 247 inlet;
#X connect 0 0 4 0;
#X connect 1 0 5 0;
#X connect 2 0 7 0;
#X connect 2 0 7 1;
#X connect 3 0 6 0;
#X connect 3 0 6 1;
#X connect 4 0 34 0;
#X connect 5 0 16 0;
#X connect 6 0 4 1;
#X connect 7 0 5 1;
#X connect 8 0 17 0;
#X connect 9 0 10 0;
#X connect 9 0 10 1;
#X connect 10 0 13 1;
#X connect 11 0 12 0;
#X connect 11 0 12 1;
#X connect 12 0 14 1;
#X connect 13 0 15 0;
#X connect 14 0 34 0;
#X connect 15 0 34 0;
#X connect 16 0 34 0;
#X connect 17 0 13 0;
#X connect 17 0 18 0;
#X connect 18 0 14 0;
#X connect 19 0 2 0;
#X connect 20 0 3 0;
#X connect 21 0 9 0;
#X connect 22 0 11 0;
#X connect 24 0 23 0;
#X connect 25 0 24 0;
#X connect 26 0 24 0;
#X connect 27 0 28 0;
#X connect 28 0 26 0;
#X connect 29 0 30 0;
#X connect 29 1 33 0;
#X connect 29 2 25 0;
#X connect 30 0 31 0;
#X connect 31 0 27 0;
#X connect 32 0 29 0;
#X connect 33 0 20 0;
#X connect 33 0 19 0;
#X connect 33 0 21 0;
#X connect 33 0 22 0;
#X connect 34 0 46 0;
#X connect 35 0 34 1;
#X connect 37 0 38 0;
#X connect 38 0 35 0;
#X connect 43 0 1 0;
#X connect 44 0 0 0;
#X connect 45 0 32 0;
#X connect 47 0 43 0;
#X connect 48 0 44 0;
#X connect 49 0 17 1;
#X connect 50 0 49 0;
