#N canvas 1124 101 507 664 10;
#X floatatom 8 29 5 0 0 0 - - -, f 5;
#X obj 7 8 inlet;
#X obj 34 152 +~;
#X obj 33 291 +~;
#X obj 98 211 *~;
#X obj 7 46 phasor~;
#X obj 114 177 -~ 1;
#X obj 115 152 -~;
#X obj 110 84 samphold~;
#X obj 111 49 noise~;
#X obj 241 127 samphold~;
#X obj 29 336 outlet~;
#X obj 256 83 delread~ \$0-oneBlDelay 1;
#X obj 257 53 delwrite~ \$0-oneBlDelay 1;
#X connect 0 0 5 0;
#X connect 1 0 0 0;
#X connect 2 0 3 0;
#X connect 3 0 11 0;
#X connect 4 0 3 1;
#X connect 5 0 2 0;
#X connect 5 0 8 1;
#X connect 5 0 10 1;
#X connect 5 0 4 0;
#X connect 6 0 4 1;
#X connect 7 0 6 0;
#X connect 8 0 7 0;
#X connect 8 0 13 0;
#X connect 9 0 8 0;
#X connect 10 0 7 1;
#X connect 10 0 2 1;
#X connect 12 0 10 0;
