#N canvas 2 141 1099 638 10;
#X obj 203 249 + 60;
#X obj 176 189 list split;
#X floatatom 204 226 5 0 0 0 - - -, f 5;
#X obj 179 119 t l b;
#X obj 228 158 random 4;
#X floatatom 249 193 5 0 0 0 - - -, f 5;
#X obj 256 595 dac~;
#N canvas 0 22 450 300 handlenotes 0;
#X obj 31 26 inlet;
#X obj 71 236 pack 0 0;
#X obj 70 71 t b f;
#X obj 71 262 outlet;
#X floatatom 32 133 5 0 0 0 - - -, f 5;
#X obj 71 206 + 1;
#X obj 58 162 t f f;
#X obj 10 238 sel 9, f 9;
#X text 107 93 this counter resets so it doesnt exceed limit that pd
can't handle (and crashes);
#X obj 19 93 count_n 9;
#X connect 0 0 2 0;
#X connect 1 0 3 0;
#X connect 2 0 9 0;
#X connect 2 1 1 1;
#X connect 4 0 6 0;
#X connect 5 0 1 0;
#X connect 5 0 7 0;
#X connect 6 1 5 0;
#X connect 7 0 9 2;
#X connect 9 0 4 0;
#X restore 203 273 pd handlenotes;
#X obj 201 313 route 1 2 3 4 5 6 7 8;
#X obj 56 439 throw~ toOUT;
#X obj 238 564 catch~ toOUT;
#X obj 140 443 throw~ toOUT;
#X obj 221 445 throw~ toOUT;
#X obj 305 449 throw~ toOUT;
#X obj 385 450 throw~ toOUT;
#X obj 469 454 throw~ toOUT;
#X obj 550 456 throw~ toOUT;
#X obj 634 460 throw~ toOUT;
#X obj 179 52 metro 50;
#X obj 180 26 tgl 15 0 empty empty empty 17 7 0 10 -262144 -1 -1 0
1;
#X floatatom 236 23 5 0 0 0 - - -, f 5;
#X obj 154 412 mallets;
#X msg 175 96 0 3 5 7;
#X text 758 634 comment;
#X text 628 545 voor variatie switchen tussen pink en noise~;
#X obj 100 412 mallets;
#X obj 208 413 mallets;
#X obj 262 413 mallets;
#X obj 315 413 mallets;
#X obj 369 413 mallets;
#X obj 423 414 mallets;
#X obj 481 413 mallets;
#X obj 463 561 send Q;
#X floatatom 467 528 5 0 0 0 - - -, f 5;
#X text 510 535 40-300!;
#X connect 0 0 7 0;
#X connect 1 1 2 0;
#X connect 2 0 0 0;
#X connect 3 0 1 0;
#X connect 3 1 4 0;
#X connect 4 0 1 1;
#X connect 4 0 5 0;
#X connect 7 0 8 0;
#X connect 8 0 25 0;
#X connect 8 1 21 0;
#X connect 8 2 26 0;
#X connect 8 3 27 0;
#X connect 8 4 28 0;
#X connect 8 5 29 0;
#X connect 8 6 30 0;
#X connect 8 7 31 0;
#X connect 10 0 6 0;
#X connect 10 0 6 1;
#X connect 18 0 22 0;
#X connect 19 0 18 0;
#X connect 20 0 18 1;
#X connect 21 0 11 0;
#X connect 22 0 3 0;
#X connect 25 0 9 0;
#X connect 26 0 12 0;
#X connect 27 0 13 0;
#X connect 28 0 14 0;
#X connect 29 0 15 0;
#X connect 30 0 16 0;
#X connect 31 0 17 0;
#X connect 33 0 32 0;
